<svg width="300" height="83" viewBox="0 0 300 83" fill="none" xmlns="http://www.w3.org/2000/svg">
<path d="M89.8999 55.9253L87.9719 61.6348H82.2188L92.1618 33.1025H99.0235L108.967 61.6348H103.213L101.285 55.9253H89.8999ZM95.5622 39.1461L91.5699 50.8687H99.5397L95.547 39.1461H95.5622Z" fill="white"/>
<path d="M130.174 52.7977C130.174 54.134 129.962 55.3791 129.521 56.518C129.081 57.6569 128.459 58.6438 127.654 59.479C126.85 60.3141 125.878 60.9671 124.739 61.4379C123.601 61.9086 122.326 62.1363 120.899 62.1363C119.472 62.1363 118.181 61.9086 117.028 61.4379C115.874 60.9671 114.902 60.3293 114.083 59.4942C113.278 58.659 112.655 57.672 112.215 56.5331C111.775 55.3943 111.562 54.1644 111.562 52.8129V35.1074H116.982V40.498H122.022V45.5546H116.982V53.0862C116.982 53.5873 117.058 54.0581 117.21 54.5288C117.361 54.9995 117.589 55.4095 117.908 55.7891C118.227 56.1535 118.621 56.4572 119.122 56.6698C119.608 56.8824 120.2 57.0038 120.884 57.0038C121.567 57.0038 122.113 56.8976 122.614 56.6698C123.1 56.4572 123.51 56.1535 123.829 55.7891C124.147 55.4246 124.375 54.9995 124.527 54.5288C124.679 54.0581 124.754 53.5873 124.754 53.0862V51.0666H130.174V52.7977Z" fill="white"/>
<path d="M153.158 61.635H147.738V49.2594C147.738 48.9557 147.692 48.5761 147.616 48.1053C147.541 47.6346 147.359 47.1942 147.085 46.7691C146.812 46.3439 146.417 45.9795 145.886 45.6758C145.37 45.3721 144.656 45.2203 143.776 45.2203C142.531 45.2203 141.544 45.5847 140.785 46.3287C140.026 47.0728 139.647 48.0446 139.647 49.2442V61.6198H134.227V31.0225H139.647L139.692 41.5455C140.375 41.0292 141.119 40.6192 141.939 40.3307C142.744 40.0422 143.624 39.9056 144.55 39.9056C145.84 39.9056 147.009 40.1333 148.087 40.5888C149.15 41.0444 150.061 41.667 150.82 42.4869C151.579 43.2917 152.156 44.2787 152.565 45.4328C152.975 46.5868 153.188 47.8624 153.188 49.2594V61.635H153.158Z" fill="white"/>
<path d="M162.205 53.162C162.555 54.4831 163.207 55.5004 164.164 56.2445C165.105 56.9885 166.228 57.353 167.519 57.353C168.43 57.353 169.28 57.1556 170.084 56.7608C170.889 56.366 171.526 55.7435 171.997 54.8931H177.796C177.158 57.0645 175.959 58.8107 174.198 60.1318C172.437 61.4681 170.221 62.1211 167.564 62.1211C166.092 62.1211 164.68 61.8326 163.374 61.2555C162.054 60.6785 160.915 59.8889 159.928 58.8867C158.942 57.8845 158.167 56.7153 157.59 55.3638C157.014 54.0276 156.725 52.585 156.725 51.0513C156.725 49.5177 157.014 48.0751 157.59 46.7085C158.167 45.3571 158.942 44.1726 159.928 43.1704C160.915 42.1682 162.069 41.3786 163.374 40.7864C164.695 40.1942 166.092 39.9058 167.564 39.9058C169.128 39.9058 170.6 40.1942 171.982 40.7864C173.363 41.3786 174.547 42.2442 175.534 43.383C176.521 44.5219 177.265 45.9189 177.75 47.5589C178.251 49.1988 178.388 51.0665 178.206 53.1468H162.221L162.205 53.162ZM172.802 48.7281C172.468 47.4981 171.83 46.5111 170.889 45.7823C169.948 45.0534 168.809 44.6889 167.504 44.6889C166.274 44.6889 165.181 45.0534 164.255 45.7823C163.329 46.5111 162.661 47.483 162.281 48.7281H172.802Z" fill="white"/>
<path d="M200.886 61.6352H195.466V49.2596C195.466 48.9559 195.42 48.561 195.344 48.0903C195.269 47.6044 195.087 47.1489 194.829 46.6933C194.57 46.2378 194.176 45.8582 193.66 45.5393C193.143 45.2204 192.43 45.0686 191.519 45.0686C190.29 45.0686 189.287 45.4634 188.544 46.2682C187.785 47.0578 187.42 48.06 187.42 49.2748V61.6503H182.001V40.4676H187.177V42.5175C187.861 41.7279 188.65 41.0902 189.561 40.6194C190.472 40.1487 191.489 39.9209 192.643 39.9209C193.872 39.9209 195.011 40.1487 196.028 40.6042C197.06 41.0598 197.925 41.6824 198.639 42.5023C199.352 43.3071 199.899 44.2941 200.309 45.4482C200.703 46.6022 200.901 47.8778 200.901 49.2748V61.6503L200.886 61.6352Z" fill="white"/>
<path d="M221.03 61.6197H222.928L226.207 52.2204V40.4522H221.03V42.7147C220.21 41.834 219.254 41.1506 218.146 40.6799C217.053 40.2092 215.838 39.9814 214.533 39.9814C213.227 39.9814 211.861 40.27 210.646 40.8318C209.432 41.3936 208.354 42.168 207.444 43.155C206.533 44.142 205.804 45.3113 205.257 46.6779C204.726 48.0445 204.453 49.5023 204.453 51.0663C204.453 52.6303 204.726 54.0881 205.257 55.4395C205.789 56.791 206.518 57.9602 207.444 58.9472C208.354 59.9342 209.432 60.7086 210.646 61.2704C211.861 61.8323 213.167 62.1209 214.533 62.1209C215.899 62.1209 217.053 61.8931 218.146 61.4223C219.239 60.9516 220.195 60.2683 221.03 59.3875V61.6501V61.6197ZM220.347 53.4047C220.059 54.1336 219.664 54.7563 219.178 55.2877C218.692 55.8192 218.1 56.2443 217.447 56.5632C216.795 56.8821 216.081 57.0339 215.337 57.0339C214.594 57.0339 213.895 56.8821 213.227 56.5784C212.559 56.2747 211.982 55.8647 211.497 55.3332C210.996 54.8018 210.616 54.1792 210.328 53.4503C210.039 52.7215 209.887 51.9471 209.887 51.0967C209.887 50.2464 210.024 49.4567 210.328 48.6975C210.616 47.9534 211.011 47.3005 211.497 46.769C211.998 46.2375 212.574 45.8124 213.227 45.4935C213.88 45.1746 214.594 45.0228 215.337 45.0228C216.081 45.0228 216.779 45.1746 217.447 45.4935C218.115 45.8124 218.692 46.2375 219.178 46.7842C219.679 47.3308 220.059 47.9686 220.347 48.7127C220.636 49.4567 220.787 50.2464 220.787 51.0967C220.787 51.9471 220.636 52.691 220.347 53.4047Z" fill="white"/>
<path d="M235.118 56.3203L233.19 62.0297H227.437L237.38 33.4976H244.242L254.185 62.0297H248.431L246.503 56.3203H235.118ZM240.796 39.5411L236.803 51.2638H244.773L240.78 39.5411H240.796Z" fill="white"/>
<path d="M276.971 62.0145H271.794V59.7519C270.944 60.6326 269.973 61.3159 268.895 61.7867C267.817 62.2574 266.618 62.4852 265.297 62.4852C263.976 62.4852 262.625 62.1967 261.411 61.6348C260.196 61.073 259.119 60.2985 258.208 59.3115C257.297 58.3245 256.568 57.1553 256.022 55.8039C255.491 54.4524 255.217 53.0098 255.217 51.4306C255.217 49.8514 255.491 48.4088 256.022 47.0422C256.553 45.6756 257.282 44.5064 258.208 43.5194C259.119 42.5324 260.196 41.7579 261.411 41.1961C262.625 40.6343 263.931 40.3458 265.297 40.3458C266.527 40.3458 267.68 40.5583 268.728 40.9835C269.775 41.4087 270.717 42.0313 271.536 42.8209V31.3867H276.956V61.9841L276.971 62.0145ZM271.536 51.4762C271.536 50.6259 271.385 49.8363 271.096 49.0922C270.808 48.3482 270.413 47.7104 269.927 47.1637C269.426 46.6171 268.849 46.1919 268.196 45.873C267.544 45.5542 266.83 45.4023 266.086 45.4023C265.343 45.4023 264.644 45.5542 263.977 45.873C263.309 46.1919 262.732 46.6171 262.246 47.1485C261.745 47.68 261.365 48.3178 261.077 49.077C260.788 49.8211 260.637 50.6259 260.637 51.4762C260.637 52.3266 260.773 53.1162 261.077 53.8299C261.365 54.5587 261.76 55.1813 262.246 55.7127C262.747 56.2442 263.324 56.6694 263.977 56.9579C264.629 57.2616 265.343 57.4134 266.086 57.4134C266.83 57.4134 267.528 57.2616 268.196 56.9427C268.864 56.6238 269.441 56.1987 269.927 55.6672C270.413 55.1358 270.808 54.5131 271.096 53.7843C271.385 53.0554 271.536 52.281 271.536 51.4762Z" fill="white"/>
<path d="M299.909 55.3636C299.909 56.4113 299.681 57.3679 299.21 58.2486C298.755 59.1294 298.102 59.8734 297.298 60.5112C296.478 61.1489 295.506 61.6349 294.368 61.9841C293.229 62.3334 291.999 62.5156 290.648 62.5156C289.297 62.5156 288.053 62.3486 286.914 61.9993C285.76 61.6501 284.743 61.1641 283.878 60.5264C282.997 59.8886 282.284 59.1142 281.722 58.2031C281.161 57.292 280.796 56.2746 280.629 55.1206H286.14C286.337 55.5913 286.595 55.9709 286.944 56.2746C287.294 56.5783 287.658 56.8365 288.068 57.0339C288.478 57.2465 288.918 57.3832 289.358 57.4591C289.798 57.535 290.239 57.5805 290.648 57.5805C291.741 57.5805 292.652 57.4287 293.381 57.1098C294.11 56.7909 294.474 56.3202 294.474 55.6976C294.474 55.3939 294.413 55.1358 294.307 54.9232C294.201 54.7106 293.973 54.5132 293.654 54.3461C293.32 54.1791 292.865 54.0273 292.288 53.8754C291.711 53.7236 290.952 53.587 290.026 53.4503C289.07 53.3136 288.068 53.1314 287.036 52.8885C286.003 52.6607 285.047 52.3114 284.166 51.8407C283.286 51.37 282.572 50.7626 281.996 50.0033C281.434 49.2441 281.145 48.2875 281.145 47.1031C281.145 46.2831 281.328 45.4631 281.707 44.6431C282.087 43.8232 282.633 43.0943 283.377 42.4565C284.121 41.8188 285.062 41.3176 286.185 40.9077C287.324 40.5129 288.66 40.3154 290.193 40.3154C291.393 40.3154 292.516 40.4673 293.563 40.7862C294.611 41.105 295.537 41.5454 296.341 42.1224C297.146 42.6994 297.814 43.3979 298.33 44.2179C298.846 45.0379 299.195 45.949 299.362 46.9361H293.73C293.563 46.4501 293.184 46.0249 292.607 45.6757C292.015 45.3264 291.21 45.1594 290.208 45.1594C288.948 45.1594 288.038 45.3416 287.491 45.7212C286.945 46.0856 286.671 46.4652 286.671 46.8449C286.671 47.3915 287.036 47.7864 287.779 48.0445C288.523 48.3027 289.54 48.5304 290.861 48.743C292.182 48.9555 293.396 49.2137 294.504 49.5022C295.613 49.7907 296.569 50.1703 297.358 50.6563C298.148 51.1422 298.77 51.7496 299.226 52.5088C299.681 53.2681 299.909 54.2095 299.909 55.3636Z" fill="white"/>
<path d="M130.174 40.4824H124.754V45.5997H130.174V40.4824Z" fill="white"/>
<path d="M40.3961 53.1924H8.13721V55.8952H40.3961V53.1924Z" fill="white"/>
<path d="M4.15948 58.4004C6.45671 58.4004 8.31896 56.5377 8.31896 54.2398C8.31896 51.942 6.45671 50.0791 4.15948 50.0791C1.86225 50.0791 0 51.942 0 54.2398C0 56.5377 1.86225 58.4004 4.15948 58.4004Z" fill="white"/>
<path d="M67.478 61.1338C62.939 61.1338 55.8042 60.4657 50.0811 56.9276L51.5079 54.6347C58.0356 58.6739 66.9468 58.5524 70.3018 58.3398L69.5427 52.1141L72.6852 46.4957L74.9927 44.9468L70.4537 36.5952V26.7251H73.1556V35.912L78.5448 45.8276L74.7192 48.3786L72.3209 52.6607L73.3075 60.7238L71.9718 60.8908C71.7896 60.9212 70.0435 61.1186 67.478 61.1186V61.1338Z" fill="white"/>
<path d="M54.6655 40.7557L53.0866 38.5691L73.0038 24.1891L70.7723 18.6618L50.2024 33.7707L48.6084 31.5841L71.9716 14.4253L76.2979 25.1457L54.6655 40.7557Z" fill="white"/>
<path d="M47.8952 46.1314C43.8116 46.1314 40.4868 42.8059 40.4868 38.7212C40.4868 34.6365 43.8116 31.311 47.8952 31.311C51.9788 31.311 55.3031 34.6365 55.3031 38.7212C55.3031 42.8059 51.9788 46.1314 47.8952 46.1314ZM47.8952 34.0292C45.2993 34.0292 43.189 36.1398 43.189 38.7364C43.189 41.333 45.2993 43.4437 47.8952 43.4437C50.4911 43.4437 52.6013 41.333 52.6013 38.7364C52.6013 36.1398 50.4911 34.0292 47.8952 34.0292Z" fill="white"/>
<path d="M57.9089 59.0381L53.4683 68.9448L55.934 70.0507L60.3746 60.1439L57.9089 59.0381Z" fill="white"/>
<path d="M37.9517 65.6287L35.9478 63.8217L40.4111 58.9017L38.2704 46.2529L40.927 45.7974L43.2801 59.737L37.9517 65.6287Z" fill="white"/>
<path d="M41.1243 46.9058L16.7593 46.8299V44.127H40.6232L41.1243 46.9058Z" fill="white"/>
<path d="M15.1806 49.5477C17.4275 49.5477 19.2489 47.7257 19.2489 45.4782C19.2489 43.2307 17.4275 41.4087 15.1806 41.4087C12.9337 41.4087 11.1123 43.2307 11.1123 45.4782C11.1123 47.7257 12.9337 49.5477 15.1806 49.5477Z" fill="white"/>
<path d="M28.1145 39.8752L12.0532 36.6561L12.3723 35.2894C14.7405 25.4041 20.433 16.4451 28.418 10.0523C36.6459 3.4773 46.5743 0 57.1248 0C60.4038 0 63.6676 0.349239 66.8707 1.03255L68.1912 1.32107L64.7 17.341L63.3791 17.0525C61.3145 16.6121 59.2198 16.3843 57.1248 16.3843C43.5989 16.3843 31.8033 25.5256 28.4332 38.6149L28.1145 39.86V39.8752ZM15.3477 34.5605L26.1561 36.732C30.2245 23.1112 42.7791 13.7119 57.1096 13.7119C58.9465 13.7119 60.7983 13.8637 62.6048 14.1826L64.9427 3.43177C62.362 2.96104 59.7207 2.71804 57.0944 2.71804C47.1663 2.71804 37.8149 5.99801 30.0728 12.1782C22.9227 17.8877 17.7158 25.799 15.3173 34.5757L15.3477 34.5605Z" fill="white"/>
<path d="M70.2866 18.814C64.0777 16.7488 58.3092 16.4299 58.2637 16.4148L58.4001 13.7119C58.643 13.7119 64.5788 14.046 71.152 16.2477L70.3018 18.814H70.2866Z" fill="white"/>
<path d="M25.1721 14.7642L23.3247 16.7368L33.7056 26.464L35.553 24.4913L25.1721 14.7642Z" fill="white"/>
<path d="M46.2853 3.09008L43.6719 3.77734L47.1226 16.9064L49.736 16.2191L46.2853 3.09008Z" fill="white"/>
</svg>
