<svg width="165" height="46" viewBox="0 0 165 46" fill="none" xmlns="http://www.w3.org/2000/svg">
<mask id="path-1-inside-1_5621_4309" fill="white">
<path d="M59.0968 37.9068H60.4892V40.5846C60.1312 40.8567 59.7189 41.0636 59.2487 41.2087C58.7785 41.3538 58.3048 41.4264 57.8274 41.4264C57.1438 41.4264 56.529 41.2813 55.9829 40.9874C55.4368 40.6935 55.01 40.2907 54.699 39.7718C54.3879 39.253 54.2324 38.6652 54.2324 38.012C54.2324 37.3589 54.3879 36.7711 54.699 36.2522C55.01 35.7334 55.4404 35.327 55.9901 35.0367C56.5398 34.7428 57.1619 34.5977 57.8527 34.5977C58.4277 34.5977 58.9521 34.6956 59.4223 34.8916C59.8925 35.0875 60.2867 35.3705 60.6086 35.7406L59.6321 36.6477C59.1619 36.1506 58.5941 35.9039 57.9286 35.9039C57.5091 35.9039 57.1366 35.991 56.8111 36.1688C56.4856 36.3466 56.2324 36.5933 56.048 36.9126C55.8671 37.2319 55.7767 37.602 55.7767 38.0157C55.7767 38.4293 55.8671 38.7885 56.048 39.1114C56.2288 39.4308 56.482 39.6811 56.8039 39.8625C57.1257 40.044 57.4946 40.131 57.9069 40.131C58.3445 40.131 58.7388 40.0367 59.0932 39.848V37.9141L59.0968 37.9068Z"/>
<path d="M71.1692 41.3137L69.8998 39.4741H68.5001V41.3137H66.9775V34.71H69.8275C70.4097 34.71 70.9161 34.8079 71.3464 35.0039C71.7768 35.1998 72.1059 35.4756 72.3374 35.8348C72.5689 36.194 72.6846 36.6185 72.6846 37.1084C72.6846 37.5982 72.5689 38.0227 72.3338 38.3783C72.0987 38.7339 71.766 39.006 71.332 39.1947L72.8076 41.3174H71.1728L71.1692 41.3137ZM70.7822 36.2521C70.5435 36.0525 70.1963 35.9545 69.737 35.9545H68.4965V38.255H69.737C70.1927 38.255 70.5435 38.1534 70.7822 37.9538C71.0209 37.7542 71.1403 37.4712 71.1403 37.1047C71.1403 36.7383 71.0209 36.448 70.7822 36.2521Z"/>
<path d="M80.3012 40.9837C79.7515 40.6898 79.3247 40.2798 79.0137 39.7609C78.7026 39.2421 78.5471 38.6579 78.5471 38.012C78.5471 37.3662 78.7026 36.782 79.0137 36.2631C79.3247 35.7442 79.7515 35.3379 80.3012 35.0403C80.8509 34.7464 81.4657 34.5977 82.1493 34.5977C82.8328 34.5977 83.4477 34.7464 83.9938 35.0403C84.5399 35.3342 84.9666 35.7442 85.2813 36.2631C85.5959 36.782 85.7515 37.3662 85.7515 38.012C85.7515 38.6579 85.5959 39.2421 85.2813 39.7609C84.9666 40.2798 84.5399 40.6862 83.9938 40.9837C83.4477 41.2776 82.8328 41.4264 82.1493 41.4264C81.4657 41.4264 80.8509 41.2776 80.3012 40.9837ZM83.2017 39.8553C83.5164 39.6775 83.7623 39.4271 83.9395 39.1042C84.1167 38.7849 84.2072 38.4184 84.2072 38.0084C84.2072 37.5984 84.1167 37.2355 83.9395 36.9126C83.7623 36.5933 83.5164 36.3429 83.2017 36.1615C82.8871 35.9837 82.5363 35.893 82.1493 35.893C81.7623 35.893 81.4079 35.9837 81.0968 36.1615C80.7822 36.3393 80.5363 36.5897 80.3591 36.9126C80.1818 37.2319 80.0914 37.5984 80.0914 38.0084C80.0914 38.4184 80.1818 38.7813 80.3591 39.1042C80.5363 39.4235 80.7822 39.6739 81.0968 39.8553C81.4115 40.0331 81.7623 40.1238 82.1493 40.1238C82.5363 40.1238 82.8871 40.0331 83.2017 39.8553Z"/>
<path d="M92.7025 40.6425C92.1781 40.12 91.9177 39.3761 91.9177 38.4073V34.71H93.4403V38.3493C93.4403 39.5322 93.9286 40.1236 94.9087 40.1236C95.3861 40.1236 95.7477 39.9821 96.0009 39.6954C96.2505 39.4088 96.377 38.9625 96.377 38.3529V34.7136H97.8816V38.411C97.8816 39.3798 97.6212 40.1236 97.0967 40.6461C96.5723 41.1686 95.8418 41.4298 94.9014 41.4298C93.9611 41.4298 93.2306 41.1686 92.7062 40.6461L92.7025 40.6425Z"/>
<path d="M108.825 35.0041C109.256 35.2001 109.585 35.4758 109.816 35.8351C110.048 36.1943 110.164 36.6188 110.164 37.1086C110.164 37.5985 110.048 38.0158 109.816 38.3786C109.585 38.7414 109.252 39.0172 108.825 39.2095C108.395 39.4018 107.889 39.4962 107.306 39.4962H105.979V41.3176H104.457V34.7139H107.306C107.889 34.7139 108.395 34.8118 108.825 35.0078V35.0041ZM108.265 37.9504C108.504 37.7509 108.623 37.4715 108.623 37.105C108.623 36.7385 108.504 36.4483 108.265 36.2523C108.026 36.0528 107.679 35.9548 107.22 35.9548H105.979V38.248H107.22C107.675 38.248 108.026 38.15 108.265 37.9504Z"/>
</mask>
<path d="M59.0968 37.9068H60.4892V40.5846C60.1312 40.8567 59.7189 41.0636 59.2487 41.2087C58.7785 41.3538 58.3048 41.4264 57.8274 41.4264C57.1438 41.4264 56.529 41.2813 55.9829 40.9874C55.4368 40.6935 55.01 40.2907 54.699 39.7718C54.3879 39.253 54.2324 38.6652 54.2324 38.012C54.2324 37.3589 54.3879 36.7711 54.699 36.2522C55.01 35.7334 55.4404 35.327 55.9901 35.0367C56.5398 34.7428 57.1619 34.5977 57.8527 34.5977C58.4277 34.5977 58.9521 34.6956 59.4223 34.8916C59.8925 35.0875 60.2867 35.3705 60.6086 35.7406L59.6321 36.6477C59.1619 36.1506 58.5941 35.9039 57.9286 35.9039C57.5091 35.9039 57.1366 35.991 56.8111 36.1688C56.4856 36.3466 56.2324 36.5933 56.048 36.9126C55.8671 37.2319 55.7767 37.602 55.7767 38.0157C55.7767 38.4293 55.8671 38.7885 56.048 39.1114C56.2288 39.4308 56.482 39.6811 56.8039 39.8625C57.1257 40.044 57.4946 40.131 57.9069 40.131C58.3445 40.131 58.7388 40.0367 59.0932 39.848V37.9141L59.0968 37.9068Z" fill="#1840E2"/>
<path d="M71.1692 41.3137L69.8998 39.4741H68.5001V41.3137H66.9775V34.71H69.8275C70.4097 34.71 70.9161 34.8079 71.3464 35.0039C71.7768 35.1998 72.1059 35.4756 72.3374 35.8348C72.5689 36.194 72.6846 36.6185 72.6846 37.1084C72.6846 37.5982 72.5689 38.0227 72.3338 38.3783C72.0987 38.7339 71.766 39.006 71.332 39.1947L72.8076 41.3174H71.1728L71.1692 41.3137ZM70.7822 36.2521C70.5435 36.0525 70.1963 35.9545 69.737 35.9545H68.4965V38.255H69.737C70.1927 38.255 70.5435 38.1534 70.7822 37.9538C71.0209 37.7542 71.1403 37.4712 71.1403 37.1047C71.1403 36.7383 71.0209 36.448 70.7822 36.2521Z" fill="#1840E2"/>
<path d="M80.3012 40.9837C79.7515 40.6898 79.3247 40.2798 79.0137 39.7609C78.7026 39.2421 78.5471 38.6579 78.5471 38.012C78.5471 37.3662 78.7026 36.782 79.0137 36.2631C79.3247 35.7442 79.7515 35.3379 80.3012 35.0403C80.8509 34.7464 81.4657 34.5977 82.1493 34.5977C82.8328 34.5977 83.4477 34.7464 83.9938 35.0403C84.5399 35.3342 84.9666 35.7442 85.2813 36.2631C85.5959 36.782 85.7515 37.3662 85.7515 38.012C85.7515 38.6579 85.5959 39.2421 85.2813 39.7609C84.9666 40.2798 84.5399 40.6862 83.9938 40.9837C83.4477 41.2776 82.8328 41.4264 82.1493 41.4264C81.4657 41.4264 80.8509 41.2776 80.3012 40.9837ZM83.2017 39.8553C83.5164 39.6775 83.7623 39.4271 83.9395 39.1042C84.1167 38.7849 84.2072 38.4184 84.2072 38.0084C84.2072 37.5984 84.1167 37.2355 83.9395 36.9126C83.7623 36.5933 83.5164 36.3429 83.2017 36.1615C82.8871 35.9837 82.5363 35.893 82.1493 35.893C81.7623 35.893 81.4079 35.9837 81.0968 36.1615C80.7822 36.3393 80.5363 36.5897 80.3591 36.9126C80.1818 37.2319 80.0914 37.5984 80.0914 38.0084C80.0914 38.4184 80.1818 38.7813 80.3591 39.1042C80.5363 39.4235 80.7822 39.6739 81.0968 39.8553C81.4115 40.0331 81.7623 40.1238 82.1493 40.1238C82.5363 40.1238 82.8871 40.0331 83.2017 39.8553Z" fill="#1840E2"/>
<path d="M92.7025 40.6425C92.1781 40.12 91.9177 39.3761 91.9177 38.4073V34.71H93.4403V38.3493C93.4403 39.5322 93.9286 40.1236 94.9087 40.1236C95.3861 40.1236 95.7477 39.9821 96.0009 39.6954C96.2505 39.4088 96.377 38.9625 96.377 38.3529V34.7136H97.8816V38.411C97.8816 39.3798 97.6212 40.1236 97.0967 40.6461C96.5723 41.1686 95.8418 41.4298 94.9014 41.4298C93.9611 41.4298 93.2306 41.1686 92.7062 40.6461L92.7025 40.6425Z" fill="#1840E2"/>
<path d="M108.825 35.0041C109.256 35.2001 109.585 35.4758 109.816 35.8351C110.048 36.1943 110.164 36.6188 110.164 37.1086C110.164 37.5985 110.048 38.0158 109.816 38.3786C109.585 38.7414 109.252 39.0172 108.825 39.2095C108.395 39.4018 107.889 39.4962 107.306 39.4962H105.979V41.3176H104.457V34.7139H107.306C107.889 34.7139 108.395 34.8118 108.825 35.0078V35.0041ZM108.265 37.9504C108.504 37.7509 108.623 37.4715 108.623 37.105C108.623 36.7385 108.504 36.4483 108.265 36.2523C108.026 36.0528 107.679 35.9548 107.22 35.9548H105.979V38.248H107.22C107.675 38.248 108.026 38.15 108.265 37.9504Z" fill="#1840E2"/>
<path d="M59.0968 37.9068H60.4892V40.5846C60.1312 40.8567 59.7189 41.0636 59.2487 41.2087C58.7785 41.3538 58.3048 41.4264 57.8274 41.4264C57.1438 41.4264 56.529 41.2813 55.9829 40.9874C55.4368 40.6935 55.01 40.2907 54.699 39.7718C54.3879 39.253 54.2324 38.6652 54.2324 38.012C54.2324 37.3589 54.3879 36.7711 54.699 36.2522C55.01 35.7334 55.4404 35.327 55.9901 35.0367C56.5398 34.7428 57.1619 34.5977 57.8527 34.5977C58.4277 34.5977 58.9521 34.6956 59.4223 34.8916C59.8925 35.0875 60.2867 35.3705 60.6086 35.7406L59.6321 36.6477C59.1619 36.1506 58.5941 35.9039 57.9286 35.9039C57.5091 35.9039 57.1366 35.991 56.8111 36.1688C56.4856 36.3466 56.2324 36.5933 56.048 36.9126C55.8671 37.2319 55.7767 37.602 55.7767 38.0157C55.7767 38.4293 55.8671 38.7885 56.048 39.1114C56.2288 39.4308 56.482 39.6811 56.8039 39.8625C57.1257 40.044 57.4946 40.131 57.9069 40.131C58.3445 40.131 58.7388 40.0367 59.0932 39.848V37.9141L59.0968 37.9068Z" stroke="#1840E2" stroke-width="2" mask="url(#path-1-inside-1_5621_4309)"/>
<path d="M71.1692 41.3137L69.8998 39.4741H68.5001V41.3137H66.9775V34.71H69.8275C70.4097 34.71 70.9161 34.8079 71.3464 35.0039C71.7768 35.1998 72.1059 35.4756 72.3374 35.8348C72.5689 36.194 72.6846 36.6185 72.6846 37.1084C72.6846 37.5982 72.5689 38.0227 72.3338 38.3783C72.0987 38.7339 71.766 39.006 71.332 39.1947L72.8076 41.3174H71.1728L71.1692 41.3137ZM70.7822 36.2521C70.5435 36.0525 70.1963 35.9545 69.737 35.9545H68.4965V38.255H69.737C70.1927 38.255 70.5435 38.1534 70.7822 37.9538C71.0209 37.7542 71.1403 37.4712 71.1403 37.1047C71.1403 36.7383 71.0209 36.448 70.7822 36.2521Z" stroke="#1840E2" stroke-width="2" mask="url(#path-1-inside-1_5621_4309)"/>
<path d="M80.3012 40.9837C79.7515 40.6898 79.3247 40.2798 79.0137 39.7609C78.7026 39.2421 78.5471 38.6579 78.5471 38.012C78.5471 37.3662 78.7026 36.782 79.0137 36.2631C79.3247 35.7442 79.7515 35.3379 80.3012 35.0403C80.8509 34.7464 81.4657 34.5977 82.1493 34.5977C82.8328 34.5977 83.4477 34.7464 83.9938 35.0403C84.5399 35.3342 84.9666 35.7442 85.2813 36.2631C85.5959 36.782 85.7515 37.3662 85.7515 38.012C85.7515 38.6579 85.5959 39.2421 85.2813 39.7609C84.9666 40.2798 84.5399 40.6862 83.9938 40.9837C83.4477 41.2776 82.8328 41.4264 82.1493 41.4264C81.4657 41.4264 80.8509 41.2776 80.3012 40.9837ZM83.2017 39.8553C83.5164 39.6775 83.7623 39.4271 83.9395 39.1042C84.1167 38.7849 84.2072 38.4184 84.2072 38.0084C84.2072 37.5984 84.1167 37.2355 83.9395 36.9126C83.7623 36.5933 83.5164 36.3429 83.2017 36.1615C82.8871 35.9837 82.5363 35.893 82.1493 35.893C81.7623 35.893 81.4079 35.9837 81.0968 36.1615C80.7822 36.3393 80.5363 36.5897 80.3591 36.9126C80.1818 37.2319 80.0914 37.5984 80.0914 38.0084C80.0914 38.4184 80.1818 38.7813 80.3591 39.1042C80.5363 39.4235 80.7822 39.6739 81.0968 39.8553C81.4115 40.0331 81.7623 40.1238 82.1493 40.1238C82.5363 40.1238 82.8871 40.0331 83.2017 39.8553Z" stroke="#1840E2" stroke-width="2" mask="url(#path-1-inside-1_5621_4309)"/>
<path d="M92.7025 40.6425C92.1781 40.12 91.9177 39.3761 91.9177 38.4073V34.71H93.4403V38.3493C93.4403 39.5322 93.9286 40.1236 94.9087 40.1236C95.3861 40.1236 95.7477 39.9821 96.0009 39.6954C96.2505 39.4088 96.377 38.9625 96.377 38.3529V34.7136H97.8816V38.411C97.8816 39.3798 97.6212 40.1236 97.0967 40.6461C96.5723 41.1686 95.8418 41.4298 94.9014 41.4298C93.9611 41.4298 93.2306 41.1686 92.7062 40.6461L92.7025 40.6425Z" stroke="#1840E2" stroke-width="2" mask="url(#path-1-inside-1_5621_4309)"/>
<path d="M108.825 35.0041C109.256 35.2001 109.585 35.4758 109.816 35.8351C110.048 36.1943 110.164 36.6188 110.164 37.1086C110.164 37.5985 110.048 38.0158 109.816 38.3786C109.585 38.7414 109.252 39.0172 108.825 39.2095C108.395 39.4018 107.889 39.4962 107.306 39.4962H105.979V41.3176H104.457V34.7139H107.306C107.889 34.7139 108.395 34.8118 108.825 35.0078V35.0041ZM108.265 37.9504C108.504 37.7509 108.623 37.4715 108.623 37.105C108.623 36.7385 108.504 36.4483 108.265 36.2523C108.026 36.0528 107.679 35.9548 107.22 35.9548H105.979V38.248H107.22C107.675 38.248 108.026 38.15 108.265 37.9504Z" stroke="#1840E2" stroke-width="2" mask="url(#path-1-inside-1_5621_4309)"/>
<path d="M114.008 0.5C117.229 0.50011 120.575 1.86677 122.848 4.02344L120.038 7.36133C118.426 5.62975 116.198 4.54408 114.105 4.54395C110.062 4.54395 107.02 7.77188 107.02 11.9199C107.02 16.0577 110.049 19.3965 114.105 19.3965C116.109 19.3964 118.34 18.3921 120.03 16.8291L122.86 19.8311C120.424 22.1645 116.977 23.6795 113.802 23.6797C106.946 23.6797 101.875 18.6455 101.875 11.9844C101.875 5.34358 107.062 0.5 114.008 0.5ZM89.6064 0.703125L99.1475 23.415H93.8262L92.2607 19.3662L92.1367 19.0459H81.4619V19.5439L81 19.3633L79.4033 23.415H74.3252L84.0908 0.703125H89.6064ZM71.9561 0.666992V5.70117H64.8311V23.415H59.8281V5.70117H52.7646V0.666992H71.9561ZM47.334 0.666992V5.70117H40.209V23.415H35.1943V5.70117H28.1426V0.666992H47.334ZM16.2393 0.703125L25.7803 23.415H20.459L18.8936 19.3662L18.7695 19.0459H8.09473V19.543L7.63672 19.3633L6.04004 23.415H0.958008L10.7236 0.703125H16.2393ZM154.896 0.713867V9.54883H163.695L163.699 14.5723H154.896V23.4043H149.889V14.5723H142.587V9.54883H149.889V0.713867H154.896ZM140.086 0.713867V23.4043H135.079V14.5723H126.276V9.54883H135.079V0.713867H140.086ZM12.833 6.01465L9.39062 14.7881L9.12207 15.4707H17.4053L17.1436 14.791L13.7656 6.01758L13.3027 4.81738L12.833 6.01465ZM86.2002 6.01465L82.7578 14.7881L82.4893 15.4707H90.7725L90.5107 14.791L87.1328 6.01758L86.6699 4.81738L86.2002 6.01465Z" fill="#1840E2" stroke="#1840E2"/>
<path d="M164.299 30.916V31.2793H0.0996094V30.916H164.299Z" fill="#1840E2" stroke="#1840E2" stroke-width="0.2"/>
<path d="M164.299 44.7373V45.1006H0.0996094V44.7373H164.299Z" fill="#1840E2" stroke="#1840E2" stroke-width="0.2"/>
</svg>
