<svg width="239" height="96" viewBox="0 0 239 96" fill="none" xmlns="http://www.w3.org/2000/svg">
<path d="M11.3492 27.8728L8.67877 34.1705H0L15.0209 0.0307617H24.0335L38.7206 34.1705H29.3743L27.0377 27.8728H11.3492ZM19.0265 8.64855L14.0195 21.2438H24.0335L19.0265 8.64855Z" fill="white"/>
<path d="M118.499 27.8728L115.828 34.1705H106.816L121.837 0.0307617H130.849L145.537 34.1705H136.19L133.52 27.8728H118.499ZM125.842 8.64855L120.835 21.2438H130.849L125.842 8.64855Z" fill="white"/>
<path d="M179.917 5.66611L174.91 11.6323C172.573 8.98065 169.235 7.32338 166.231 7.32338C160.891 7.32338 156.551 11.6323 156.551 17.267C156.551 22.9017 160.557 27.2106 166.231 27.2106C169.235 27.2106 172.573 25.5533 174.91 23.2331L179.917 28.5364C176.245 32.1824 170.904 34.834 165.564 34.834C155.216 34.834 147.539 27.2106 147.539 17.267C147.539 7.32338 155.55 0.0314053 165.897 0.0314053C170.904 -0.300048 176.245 2.02012 179.917 5.66611Z" fill="white"/>
<path d="M105.147 0.0307617V8.64855H94.799V34.1705H86.1202V8.64855H75.7725V0.0307617H105.147Z" fill="white"/>
<path d="M69.4299 0.0307617V8.64855H59.0822V34.1705H50.0696V8.64855H40.0557V0.0307617H69.4299Z" fill="white"/>
<path d="M204.619 14.5142V18.1428V21.5752V34.1705H195.94V21.5752H182.922V12.9574H195.94V0.0307617H204.619V12.9574V14.5142Z" fill="white"/>
<path d="M239 12.9574V21.5752H226.315V34.1705H217.637V21.5752H207.794V12.9574H217.637V0.0307617H226.315V12.9574H239Z" fill="white"/>
<rect width="158.223" height="49.2227" transform="translate(80.7773 46.4453)" fill="white"/>
<path d="M115.502 84.0566V69.7965L110.894 84.0566H105.814L101.206 69.7239V84.0566H94.7835V58.1488H102.875L108.427 75.4933L114.015 58.1488H122.07V84.0566H115.502ZM126.852 58.1488H145.394V63.8819H133.638V68.0185H144.668V73.7516H133.638V78.3235H146.156L145.575 84.0566H126.852V58.1488ZM156.604 78.1784H159.543C161.647 78.1784 163.208 77.5615 164.224 76.3278C165.203 75.0941 165.711 73.3162 165.711 71.0302C165.711 68.7805 165.24 67.0388 164.332 65.8414C163.389 64.6439 161.938 64.0271 159.906 64.0271H156.604V78.1784ZM149.637 84.0566V58.1488H159.833C164.115 58.1488 167.38 59.2374 169.594 61.3782C171.807 63.5554 172.932 66.6759 172.932 70.8125C172.932 75.0941 171.735 78.3598 169.412 80.6458C167.09 82.9318 163.752 84.0566 159.434 84.0566H149.637Z" fill="#464646"/>
<path d="M181.956 58.1488H190.193L184.714 84.0566H176.477L181.956 58.1488ZM206.147 79.8838H197.947L196.822 84.0566H188.694L197.112 58.1488H207.272L215.618 84.0566H207.308L206.147 79.8838ZM199.688 73.4613H204.405L202.047 64.8616L199.688 73.4613ZM218.302 76.2553H225.523V84.0566H218.302V76.2553Z" fill="#464646"/>
</svg>
