<svg width="279" height="74" viewBox="0 0 279 74" fill="none" xmlns="http://www.w3.org/2000/svg">
<path d="M230.983 53.7407V19.4761H239.401V53.7407H230.983Z" fill="white"/>
<path d="M262.447 42.0861H256.095L259.137 33.4534L254.963 19.4761L242.881 53.7407H251.978L253.718 48.8998H264.951L262.447 42.0861Z" fill="white"/>
<path d="M266.918 19.4761H257.807L269.903 53.7407H279L266.918 19.4761Z" fill="white"/>
<path d="M65.4176 35.4122H85.5351V36.0977C85.5351 46.7171 78.2774 54.4263 67.3556 54.4263C55.7831 54.4263 48.6812 46.2694 48.6812 36.5455C48.6812 26.8215 55.8821 18.6646 67.3556 18.6646C76.1553 18.6646 82.5075 23.5336 84.7428 31.2428H76.396C74.9105 28.2906 72.1233 25.8421 67.3981 25.8421C60.9893 25.8421 57.1129 30.3194 57.1129 36.5595C57.1129 43.4432 61.0317 47.5146 67.299 47.5146C71.8685 47.5146 74.9953 45.2481 76.2968 42.2539H65.4176V35.4262V35.4122Z" fill="white"/>
<path d="M109.585 32.6557V28.9759H117.578V53.7406H109.727V50.0608C108.34 52.4254 105.454 54.3422 101.677 54.3422C94.4192 54.3422 89.1562 48.7457 89.1562 41.3723C89.1562 33.9989 94.4192 28.4023 101.677 28.4023C105.454 28.4023 108.439 30.1652 109.571 32.6837L109.585 32.6557ZM109.43 41.3583C109.43 37.7206 106.897 35.0622 103.318 35.0622C99.7385 35.0622 97.3051 37.7625 97.3051 41.3583C97.3051 44.9541 99.7951 47.6544 103.318 47.6544C106.84 47.6544 109.43 44.996 109.43 41.3583Z" fill="white"/>
<path d="M123.549 53.7404V17.8667H131.698V53.7404H123.549Z" fill="white"/>
<path d="M137.908 53.7407V28.9761H146.057V53.7407H137.908Z" fill="white"/>
<path d="M137.908 24.8484V17.8667H146.057V24.8484H137.908Z" fill="white"/>
<path d="M152.268 53.7404V17.8667H160.417V53.7404H152.268Z" fill="white"/>
<path d="M183.859 46.0312H191.357C189.815 50.7043 184.849 54.342 178.582 54.342C169.839 54.342 164.873 48.9414 164.873 41.3161C164.873 33.6909 170.433 28.3882 178.243 28.3882C186.052 28.3882 191.555 33.3971 191.555 41.4141V43.8206H172.881C173.376 46.5209 175.074 48.4937 178.596 48.4937C181.03 48.4937 182.925 47.5562 183.859 46.0312ZM172.881 38.8536H183.76C183.364 35.9015 181.425 33.9847 178.341 33.9847C175.257 33.9847 173.319 35.7476 172.881 38.8536Z" fill="white"/>
<path d="M222.764 41.3581C222.764 48.046 217.742 54.3281 208.857 54.3281C199.973 54.3281 194.95 48.032 194.95 41.3581C194.95 34.6843 199.973 28.3882 208.857 28.3882C217.742 28.3882 222.764 34.6843 222.764 41.3581ZM214.813 41.3581C214.813 38.0702 212.833 35.0621 208.857 35.0621C204.882 35.0621 202.901 38.0562 202.901 41.3581C202.901 44.6601 204.882 47.6542 208.857 47.6542C212.833 47.6542 214.813 44.6601 214.813 41.3581Z" fill="white"/>
<path d="M26.2996 48.9975C31.2142 48.9975 35.1984 45.0574 35.1984 40.197C35.1984 35.3366 31.2142 31.3965 26.2996 31.3965C21.385 31.3965 17.4009 35.3366 17.4009 40.197C17.4009 45.0574 21.385 48.9975 26.2996 48.9975Z" fill="white"/>
<path d="M7.21495 61.9532C11.1998 61.9532 14.4302 58.7585 14.4302 54.8177C14.4302 50.8768 11.1998 47.6821 7.21495 47.6821C3.23013 47.6821 0 50.8768 0 54.8177C0 58.7585 3.23013 61.9532 7.21495 61.9532Z" fill="white"/>
<path d="M34.265 21.9943C40.4063 21.9943 45.3846 17.0707 45.3846 10.9971C45.3846 4.92358 40.4063 0 34.265 0C28.1237 0 23.145 4.92358 23.145 10.9971C23.145 17.0707 28.1237 21.9943 34.265 21.9943Z" fill="white"/>
<path d="M33.2012 10.7433L25.3193 39.9565L27.5885 40.5553L35.4703 11.342L33.2012 10.7433Z" fill="white"/>
<path d="M25.6126 39.2712L6.44971 53.8975L7.88459 55.7362L27.0475 41.1099L25.6126 39.2712Z" fill="white"/>
<path d="M41.5508 62.961C39.8956 63.3387 38.3959 63.6745 36.9104 64.0243C33.897 64.7379 32.0297 66.5987 31.3364 69.5788C30.9969 71.0479 30.6432 72.517 30.2046 74.0001C29.9075 72.7269 29.6247 71.4396 29.2993 70.1664C29.1154 69.4389 28.9598 68.6834 28.6486 68.0118C27.6724 65.8851 25.9889 64.5839 23.697 64.0522C22.1691 63.6885 20.6412 63.3527 19.0991 62.9049C20.1602 62.6531 21.2212 62.4153 22.2823 62.1634C22.9189 62.0095 23.5695 61.8976 24.192 61.7017C26.7243 60.9042 28.3795 59.2393 29.0727 56.6789C29.4547 55.2657 29.7518 53.8246 30.0913 52.3975C30.1337 52.2436 30.1764 52.0897 30.2754 51.7539C30.6574 53.3769 30.9969 54.846 31.3364 56.3011C32.0438 59.2532 33.8545 61.1281 36.8538 61.8417C38.2119 62.1635 39.5844 62.4712 40.9426 62.7791C41.0982 62.821 41.2537 62.877 41.565 62.961H41.5508Z" fill="white"/>
<path d="M6.66863 24.5588L5.28467 26.4351L25.5949 41.0875L26.9788 39.2112L6.66863 24.5588Z" fill="white"/>
<path d="M6.0406 31.5785C9.37691 31.5785 12.0816 28.9037 12.0816 25.6042C12.0816 22.3047 9.37691 19.6299 6.0406 19.6299C2.7043 19.6299 0 22.3047 0 25.6042C0 28.9037 2.7043 31.5785 6.0406 31.5785Z" fill="white"/>
</svg>
