<svg width="45" height="45" viewBox="0 0 45 45" fill="none" xmlns="http://www.w3.org/2000/svg">
<rect width="44.7059" height="44.7059" rx="22.3529" fill="#1840E2"/>
<path d="M22.3525 12C26.4881 12 28.5565 11.9999 30.0459 12.9854C30.7109 13.4254 31.2807 13.9951 31.7207 14.6602C32.7061 16.1495 32.7061 18.2173 32.7061 22.3525C32.7061 26.4881 32.7062 28.5565 31.7207 30.0459C31.2806 30.711 30.711 31.2806 30.0459 31.7207C28.5565 32.7062 26.4881 32.7061 22.3525 32.7061C18.2173 32.7061 16.1495 32.7061 14.6602 31.7207C13.9951 31.2807 13.4254 30.7109 12.9854 30.0459C11.9999 28.5565 12 26.4881 12 22.3525C12 18.2173 11.9999 16.1495 12.9854 14.6602C13.4254 13.9951 13.9951 13.4254 14.6602 12.9854C16.1495 11.9999 18.2173 12 22.3525 12ZM22.3516 16.9941C19.3918 16.9944 16.9924 19.3937 16.9922 22.3535C16.9922 25.3135 19.3916 27.7136 22.3516 27.7139C25.3117 27.7139 27.7119 25.3137 27.7119 22.3535C27.7117 19.3936 25.3116 16.9941 22.3516 16.9941ZM22.3516 18.8076C24.3101 18.8076 25.8982 20.3951 25.8984 22.3535C25.8984 24.3122 24.3102 25.9004 22.3516 25.9004C20.3931 25.9001 18.8057 24.312 18.8057 22.3535C18.8059 20.3952 20.3933 18.8079 22.3516 18.8076ZM27.9238 15.4648C27.2283 15.4648 26.6641 16.0291 26.6641 16.7246C26.6643 17.42 27.2284 17.9834 27.9238 17.9834C28.6191 17.9832 29.1824 17.4199 29.1826 16.7246C29.1826 16.0292 28.6192 15.465 27.9238 15.4648Z" fill="url(#paint0_linear_6091_4364)"/>
<defs>
<linearGradient id="paint0_linear_6091_4364" x1="32.7059" y1="22.3529" x2="12" y2="22.3529" gradientUnits="userSpaceOnUse">
<stop stop-color="#C5C5C5"/>
<stop offset="0.120192" stop-color="#E9E9E9"/>
<stop offset="1" stop-color="white"/>
</linearGradient>
</defs>
</svg>
