<svg width="44" height="44" viewBox="0 0 44 44" fill="none" xmlns="http://www.w3.org/2000/svg">
<rect width="44" height="44" rx="22" fill="#1840E2"/>
<path d="M12.2949 15.13C12.2949 14.5199 12.5092 14.0167 12.9376 13.6202C13.3661 13.2236 13.9231 13.0254 14.6086 13.0254C15.2819 13.0254 15.8266 13.2206 16.2429 13.611C16.6713 14.0136 16.8855 14.5382 16.8855 15.1849C16.8855 15.7705 16.6774 16.2585 16.2612 16.6489C15.8328 17.0515 15.2696 17.2528 14.5719 17.2528H14.5535C13.8802 17.2528 13.3355 17.0515 12.9192 16.6489C12.503 16.2463 12.2949 15.74 12.2949 15.13ZM12.5336 31.143V18.9182H16.6101V31.143H12.5336ZM18.8687 31.143H22.9452V24.3169C22.9452 23.8899 22.9941 23.5605 23.0921 23.3287C23.2634 22.9138 23.5236 22.5631 23.8725 22.2764C24.2214 21.9897 24.659 21.8463 25.1854 21.8463C26.5565 21.8463 27.242 22.7674 27.242 24.6097V31.143H31.3185V24.1339C31.3185 22.3282 30.89 20.9587 30.0331 20.0254C29.1762 19.0921 28.0438 18.6254 26.636 18.6254C25.0568 18.6254 23.8266 19.3025 22.9452 20.6568V20.6934H22.9268L22.9452 20.6568V18.9182H18.8687C18.8932 19.3086 18.9054 20.5225 18.9054 22.56C18.9054 24.5975 18.8932 27.4585 18.8687 31.143Z" fill="url(#paint0_linear_6091_4362)"/>
<defs>
<linearGradient id="paint0_linear_6091_4362" x1="31.3185" y1="22.0842" x2="12.2949" y2="22.0842" gradientUnits="userSpaceOnUse">
<stop stop-color="#C5C5C5"/>
<stop offset="0.120192" stop-color="#E9E9E9"/>
<stop offset="1" stop-color="white"/>
</linearGradient>
</defs>
</svg>
