<svg width="44" height="44" viewBox="0 0 44 44" fill="none" xmlns="http://www.w3.org/2000/svg">
<rect width="43.9684" height="43.5294" rx="21.7647" fill="#1840E2"/>
<path d="M22.4709 29.5091L17.9638 29.4248C16.5046 29.3955 15.0416 29.4541 13.611 29.15C11.4346 28.6956 11.2804 26.4678 11.119 24.5991C10.8967 21.972 10.9828 19.2971 11.4023 16.6919C11.6392 15.2301 12.5712 14.3578 14.0125 14.2629C18.8782 13.9184 23.7761 13.9592 28.631 14.1199C29.1437 14.1347 29.66 14.2152 30.1655 14.3069C32.6612 14.7539 32.722 17.2785 32.8838 19.4037C33.0452 21.5509 32.977 23.7091 32.6687 25.8416C32.4213 27.6073 31.9479 29.088 29.9504 29.2309C27.4476 29.4179 25.0022 29.5683 22.4924 29.5204C22.4925 29.5091 22.4781 29.5091 22.4709 29.5091ZM19.8212 25.0388C21.7073 23.9322 23.5574 22.844 25.4326 21.7448C23.543 20.6381 21.6965 19.5499 19.8212 18.4507V25.0388Z" fill="url(#paint0_linear_6091_4370)"/>
<defs>
<linearGradient id="paint0_linear_6091_4370" x1="32.9684" y1="21.7647" x2="11" y2="21.7647" gradientUnits="userSpaceOnUse">
<stop stop-color="#C5C5C5"/>
<stop offset="0.120192" stop-color="#E9E9E9"/>
<stop offset="1" stop-color="white"/>
</linearGradient>
</defs>
</svg>
