<svg width="80" height="80" viewBox="0 0 80 80" fill="none" xmlns="http://www.w3.org/2000/svg">
<g clip-path="url(#clip0_3858_6447)">
<path d="M65.3125 39.375C65.3125 38.3411 64.4714 37.5 63.4375 37.5H58.4375C57.4036 37.5 56.5625 38.3411 56.5625 39.375V43.125H54.0625V39.375C54.0625 38.3411 53.2214 37.5 52.1875 37.5H48.4375C47.4036 37.5 46.5625 38.3411 46.5625 39.375V51.25C46.5625 53.3178 48.2447 55 50.3125 55H52.7872C52.5853 60.3889 51.0773 65.8458 48.3014 71.25H47.8125C44.7109 71.25 42.1875 73.7733 42.1875 76.875V78.75C42.1875 79.4403 42.7472 80 43.4375 80H78.4375C79.1278 80 79.6875 79.4403 79.6875 78.75V76.875C79.6875 73.7734 77.1641 71.25 74.0625 71.25H73.5631C70.7008 65.8448 69.1894 60.3877 69.0677 55H71.5625C73.6303 55 75.3125 53.3178 75.3125 51.25V39.375C75.3125 38.3411 74.4714 37.5 73.4375 37.5H69.6875C68.6536 37.5 67.8125 38.3411 67.8125 39.375V43.125H65.3125V39.375ZM77.1875 76.8748V77.4998H44.6875V76.8748C44.6875 75.1517 46.0894 73.7498 47.8125 73.7498H74.0625C75.7856 73.7498 77.1875 75.1517 77.1875 76.8748ZM70.7505 71.25H51.098C53.6953 65.8578 55.1022 60.4055 55.2905 55H66.5662C66.6787 60.4064 68.083 65.8586 70.7505 71.25ZM69.0625 45.625C69.7528 45.625 70.3125 45.0653 70.3125 44.375V40H72.8125V51.25C72.8125 51.9392 72.2517 52.5 71.5625 52.5H50.3125C49.6233 52.5 49.0625 51.9392 49.0625 51.25V40H51.5625V44.375C51.5625 45.0653 52.1222 45.625 52.8125 45.625H57.8125C58.5028 45.625 59.0625 45.0653 59.0625 44.375V40H62.8125V44.375C62.8125 45.0653 63.3722 45.625 64.0625 45.625H69.0625Z" fill="url(#paint0_linear_3858_6447)"/>
<path d="M2.8125 63.125H21.5809L10.558 78.0059C10.147 78.5606 10.2638 79.3434 10.8184 79.7544C11.0422 79.9202 11.3028 80 11.5616 80C11.9441 80 12.3219 79.8248 12.567 79.4939L24.6922 63.125H31.5625V78.75C31.5625 79.4403 32.1222 80 32.8125 80C33.5028 80 34.0625 79.4403 34.0625 78.75V63.125H47.8125C48.5028 63.125 49.0625 62.5653 49.0625 61.875C49.0625 61.1847 48.5028 60.625 47.8125 60.625H2.8125V55H42.8125C43.5028 55 44.0625 54.4403 44.0625 53.75C44.0625 53.0597 43.5028 52.5 42.8125 52.5H6.5625V15.625H59.0625V33.75C59.0625 34.4403 59.6222 35 60.3125 35C61.0028 35 61.5625 34.4403 61.5625 33.75V15.625H62.8125C64.1909 15.625 65.3125 14.5034 65.3125 13.125V7.5C65.3125 6.12156 64.1911 5 62.8125 5H37.8125V1.875C37.8125 0.841094 36.9714 0 35.9375 0H29.6875C28.6536 0 27.8125 0.841094 27.8125 1.875V5H2.8125C1.43406 5 0.3125 6.12141 0.3125 7.5V13.125C0.3125 14.5034 1.43406 15.625 2.8125 15.625H4.0625V52.5H2.8125C1.43406 52.5 0.3125 53.6214 0.3125 55V60.625C0.3125 62.0034 1.43406 63.125 2.8125 63.125ZM30.3125 2.5H35.3125V5H30.3125V2.5ZM2.8125 7.5H62.8125L62.8141 13.1248L2.8125 13.125V7.5Z" fill="url(#paint1_linear_3858_6447)"/>
<path d="M12.8661 46.8213C13.1102 47.0653 13.4302 47.1875 13.75 47.1875C14.0698 47.1875 14.3898 47.0655 14.6339 46.8214L18.75 42.7052L22.8661 46.8213C23.1102 47.0653 23.43 47.1873 23.75 47.1873C24.0698 47.1873 24.3898 47.0653 24.6339 46.8213C25.122 46.3331 25.122 45.5416 24.6339 45.0534L20.5178 40.9375L24.6339 36.8214C25.122 36.3333 25.122 35.5417 24.6339 35.0536C24.1458 34.5655 23.3542 34.5655 22.8661 35.0536L18.75 39.1697L14.6339 35.0536C14.1458 34.5655 13.3542 34.5655 12.8661 35.0536C12.378 35.5417 12.378 36.3333 12.8661 36.8214L16.9823 40.9375L12.8662 45.0536C12.378 45.5417 12.378 46.3331 12.8661 46.8213Z" fill="url(#paint2_linear_3858_6447)"/>
<path d="M47.1875 33.125C50.9784 33.125 54.0625 30.0409 54.0625 26.25C54.0625 22.4591 50.9784 19.375 47.1875 19.375C43.3966 19.375 40.3125 22.4591 40.3125 26.25C40.3125 30.0409 43.3966 33.125 47.1875 33.125ZM47.1875 21.875C49.5998 21.875 51.5625 23.8377 51.5625 26.25C51.5625 28.6623 49.5998 30.625 47.1875 30.625C44.7752 30.625 42.8125 28.6623 42.8125 26.25C42.8125 23.8377 44.7752 21.875 47.1875 21.875Z" fill="url(#paint3_linear_3858_6447)"/>
<path d="M47.1875 28.125C48.223 28.125 49.0625 27.2855 49.0625 26.25C49.0625 25.2145 48.223 24.375 47.1875 24.375C46.152 24.375 45.3125 25.2145 45.3125 26.25C45.3125 27.2855 46.152 28.125 47.1875 28.125Z" fill="url(#paint4_linear_3858_6447)"/>
<path d="M25.9362 41.8751C25.9673 41.8751 25.9987 41.8738 26.0302 41.8715C26.3913 41.8446 34.948 41.1424 41.4468 34.9688C41.9473 34.4932 41.9676 33.7021 41.4921 33.2017C41.0163 32.7009 40.2254 32.6809 39.7249 33.1563C33.8968 38.6931 25.9413 39.3709 25.8435 39.3787C25.1557 39.4306 24.6398 40.0298 24.691 40.7179C24.7398 41.3748 25.2879 41.8751 25.9362 41.8751Z" fill="url(#paint5_linear_3858_6447)"/>
<path d="M12.1875 21.875H34.6875C35.3778 21.875 35.9375 21.3153 35.9375 20.625C35.9375 19.9347 35.3778 19.375 34.6875 19.375H12.1875C11.4972 19.375 10.9375 19.9347 10.9375 20.625C10.9375 21.3153 11.4972 21.875 12.1875 21.875Z" fill="url(#paint6_linear_3858_6447)"/>
<path d="M12.1875 28.75H29.0625C29.7528 28.75 30.3125 28.1903 30.3125 27.5C30.3125 26.8097 29.7528 26.25 29.0625 26.25H12.1875C11.4972 26.25 10.9375 26.8097 10.9375 27.5C10.9375 28.1903 11.4972 28.75 12.1875 28.75Z" fill="url(#paint7_linear_3858_6447)"/>
</g>
<defs>
<linearGradient id="paint0_linear_3858_6447" x1="79.6875" y1="80" x2="35.8314" y2="71.8956" gradientUnits="userSpaceOnUse">
<stop stop-color="#FFC351"/>
<stop offset="1" stop-color="#FF3F73"/>
</linearGradient>
<linearGradient id="paint1_linear_3858_6447" x1="65.3125" y1="80" x2="-11.0884" y2="66.9993" gradientUnits="userSpaceOnUse">
<stop stop-color="#FFC351"/>
<stop offset="1" stop-color="#FF3F73"/>
</linearGradient>
<linearGradient id="paint2_linear_3858_6447" x1="25" y1="47.1875" x2="10.5173" y2="44.1543" gradientUnits="userSpaceOnUse">
<stop stop-color="#FFC351"/>
<stop offset="1" stop-color="#FF3F73"/>
</linearGradient>
<linearGradient id="paint3_linear_3858_6447" x1="54.0625" y1="33.125" x2="38.1316" y2="29.7885" gradientUnits="userSpaceOnUse">
<stop stop-color="#FFC351"/>
<stop offset="1" stop-color="#FF3F73"/>
</linearGradient>
<linearGradient id="paint4_linear_3858_6447" x1="49.0625" y1="28.125" x2="44.7177" y2="27.2151" gradientUnits="userSpaceOnUse">
<stop stop-color="#FFC351"/>
<stop offset="1" stop-color="#FF3F73"/>
</linearGradient>
<linearGradient id="paint5_linear_3858_6447" x1="41.8358" y1="41.8751" x2="23.9111" y2="34.7717" gradientUnits="userSpaceOnUse">
<stop stop-color="#FFC351"/>
<stop offset="1" stop-color="#FF3F73"/>
</linearGradient>
<linearGradient id="paint6_linear_3858_6447" x1="35.9375" y1="21.875" x2="30.324" y2="10.1184" gradientUnits="userSpaceOnUse">
<stop stop-color="#FFC351"/>
<stop offset="1" stop-color="#FF3F73"/>
</linearGradient>
<linearGradient id="paint7_linear_3858_6447" x1="30.3125" y1="28.75" x2="23.8652" y2="18.2853" gradientUnits="userSpaceOnUse">
<stop stop-color="#FFC351"/>
<stop offset="1" stop-color="#FF3F73"/>
</linearGradient>
<clipPath id="clip0_3858_6447">
<rect width="80" height="80" fill="white"/>
</clipPath>
</defs>
</svg>
