<svg width="80" height="80" viewBox="0 0 80 80" fill="none" xmlns="http://www.w3.org/2000/svg">
<path d="M28.5085 52.488C28.416 52.5138 28.3227 52.5262 28.2302 52.5262C27.7748 52.5262 27.3568 52.2249 27.2287 51.7644C27.0757 51.2116 27.3995 50.6391 27.9527 50.4862L31.3617 49.5422C31.9149 49.3893 32.4877 49.7129 32.6406 50.2658C32.7936 50.8187 32.4699 51.3911 31.9167 51.544L28.5085 52.488ZM33.8929 54.7796C33.7399 54.2267 33.1672 53.9031 32.614 54.056L29.2049 54.9991C28.6517 55.152 28.3271 55.7244 28.481 56.2782C28.6082 56.7387 29.0271 57.04 29.4824 57.04C29.574 57.04 29.6674 57.0276 29.7608 57.0018L33.1698 56.0578C33.7212 55.9049 34.0459 55.3324 33.8929 54.7796ZM66.4676 50.4062L69.0317 59.6569C69.1847 60.2098 68.861 60.7822 68.3078 60.936L65.2812 61.7742C64.913 61.8764 64.5377 61.9271 64.165 61.9271C63.4526 61.9271 62.7473 61.7422 62.1078 61.3813C61.2487 60.8951 60.6039 60.1422 60.2597 59.2347L42.4871 59.8133L46.3968 73.9164C46.7383 75.1484 46.5774 76.4436 45.9441 77.5618C45.31 78.6809 44.2827 79.4844 43.05 79.8258C42.6222 79.9431 42.1918 80 41.7684 80C39.6624 80 37.7253 78.6044 37.1365 76.4791L32.9875 61.5129L29.1756 62.5689C28.8767 62.6516 28.5726 62.6924 28.2702 62.6924C27.6921 62.6924 27.1202 62.5431 26.6017 62.2498C25.8119 61.8027 25.2436 61.0773 25.0026 60.208L24.7295 59.224L23.0361 59.6933C22.6644 59.7964 22.2891 59.8453 21.9208 59.8453C20.0878 59.8453 18.4024 58.6302 17.8892 56.7813C17.2738 54.56 18.5803 52.2533 20.8029 51.6373L22.4963 51.1689L22.2232 50.1858C21.7243 48.3849 22.7836 46.5129 24.5855 46.0142L34.0939 43.3813L52.956 32.8862C52.5789 30.7893 53.8597 28.7058 55.9542 28.1253L58.9808 27.2871C59.534 27.1342 60.1067 27.4578 60.2597 28.0107L62.8238 37.2613C66.1519 36.8613 69.3742 38.944 70.2956 42.2693C71.217 45.5938 69.5271 49.0373 66.4676 50.4062ZM59.6692 57.1733L53.5092 34.9547L35.7108 44.8587L39.3084 57.8364L59.6692 57.1733ZM24.1737 57.2213L23.0504 53.1707L21.357 53.6391C20.2399 53.9484 19.5826 55.1093 19.8922 56.2258C20.2017 57.3422 21.3623 57.9991 22.4803 57.6898L24.1737 57.2213ZM37.2459 58.1778L33.7666 45.6267L25.1404 48.0151C24.4431 48.208 24.0331 48.9324 24.2261 49.6293L27.0046 59.6524C27.0971 59.9876 27.3177 60.2676 27.6236 60.4409C27.9304 60.6142 28.2835 60.6587 28.6188 60.5662L37.2459 58.1778ZM40.349 59.8818L38.6831 59.936L34.9904 60.9582L39.1394 75.9244C39.3324 76.6222 39.7895 77.2044 40.4255 77.5644C41.0614 77.9244 41.796 78.016 42.4942 77.8231C43.1915 77.6302 43.774 77.1733 44.1342 76.5378C44.4944 75.9022 44.586 75.168 44.393 74.4702L40.349 59.8818ZM66.7505 59.2107L58.5325 29.5662L56.5083 30.1271C55.3921 30.4364 54.7357 31.5956 55.0452 32.7111L62.1416 58.3093C62.2902 58.8462 62.6424 59.2951 63.1333 59.5724C63.6234 59.8507 64.1899 59.9209 64.7271 59.7716L66.7505 59.2107ZM68.2918 42.8231C67.6772 40.6053 65.5987 39.1796 63.3877 39.2969L65.9029 48.368C67.8586 47.3333 68.9063 45.0409 68.2918 42.8231ZM70.9626 31.1884C70.4628 30.9058 69.8286 31.0818 69.5458 31.5804L67.8995 34.4871C67.6167 34.9867 67.7928 35.6204 68.2918 35.9031C68.4536 35.9947 68.6297 36.0382 68.8032 36.0382C69.1651 36.0382 69.5173 35.8489 69.7086 35.5111L71.3548 32.6044C71.6385 32.1049 71.4624 31.4711 70.9626 31.1884ZM77.9621 40.1458C77.8091 39.5929 77.2355 39.2693 76.6831 39.4222L73.4627 40.3147C72.9095 40.4676 72.5848 41.04 72.7387 41.5938C72.8659 42.0542 73.2848 42.3556 73.7402 42.3556C73.8318 42.3556 73.9251 42.3431 74.0185 42.3173L77.239 41.4249C77.7913 41.2711 78.1151 40.6987 77.9621 40.1458ZM76.1806 50.0098L73.2723 48.3644C72.7725 48.0818 72.1384 48.2578 71.8555 48.7564C71.5727 49.256 71.7488 49.8898 72.2478 50.1724L75.1561 51.8178C75.3179 51.9093 75.494 51.9529 75.6675 51.9529C76.0294 51.9529 76.3816 51.7636 76.5729 51.4258C76.8566 50.9271 76.6805 50.2924 76.1806 50.0098ZM27.6583 27.6987V27.7004C27.6583 29.6471 26.0743 31.2302 24.1265 31.2302C22.1788 31.2302 20.5948 29.6462 20.5948 27.7004C20.5948 25.7538 22.1797 24.1707 24.1265 24.1707C24.645 24.1707 25.136 24.2853 25.5789 24.4871V21.64L17.1466 24.2293V31.9751V31.9769C17.1466 33.9236 15.5617 35.5067 13.6148 35.5067C11.668 35.5067 10.0831 33.9236 10.0831 31.9769C10.0831 30.0302 11.668 28.4471 13.6148 28.4471C14.1334 28.4471 14.6243 28.5618 15.0681 28.7636V19.456C15.0681 19 15.3661 18.5973 15.8027 18.4631L26.3144 15.2356C26.6293 15.1387 26.9726 15.1973 27.2376 15.3929C27.5026 15.5884 27.6592 15.8987 27.6592 16.2284L27.6583 27.6987ZM15.0681 31.9769V31.9751C15.0672 31.1751 14.4162 30.5244 13.6148 30.5244C12.8135 30.5244 12.1616 31.176 12.1616 31.9769C12.1616 32.7778 12.8135 33.4293 13.6148 33.4293C14.4162 33.4293 15.0681 32.7778 15.0681 31.9769ZM25.5789 19.4658V17.6338L17.1466 20.2231V22.056L25.5789 19.4658ZM25.5789 27.7004V27.6987C25.578 26.8987 24.927 26.248 24.1265 26.248C23.3252 26.248 22.6733 26.8996 22.6733 27.7004C22.6733 28.5013 23.3252 29.1529 24.1265 29.1529C24.927 29.1529 25.5789 28.5013 25.5789 27.7004ZM31.6009 38.5413H6.14043C4.40879 38.5413 3 37.1333 3 35.4027V15.2924C3 13.5618 4.40879 12.1547 6.14043 12.1547H31.6009C33.3326 12.1547 34.7414 13.5627 34.7414 15.2924V35.4027C34.7405 37.1333 33.3326 38.5413 31.6009 38.5413ZM6.14043 36.4631H31.6009C32.1862 36.4631 32.662 35.9876 32.662 35.4027V15.2924C32.662 14.7076 32.1862 14.232 31.6009 14.232H6.14043C5.55521 14.232 5.07939 14.7076 5.07939 15.2924V35.4027C5.07939 35.9876 5.55521 36.4631 6.14043 36.4631ZM28.529 10.9004C29.1027 10.9004 29.5687 10.4356 29.5687 9.86133V3.13778C29.5687 2.55289 30.0445 2.07733 30.6297 2.07733H56.0903C56.6755 2.07733 57.1513 2.55289 57.1513 3.13778V23.248C57.1513 23.8329 56.6755 24.3084 56.0903 24.3084H37.0351C36.4615 24.3084 35.9954 24.7733 35.9954 25.3476C35.9954 25.9218 36.4606 26.3867 37.0351 26.3867H56.0911C57.8228 26.3867 59.2316 24.9787 59.2316 23.248V3.13778C59.2316 1.40711 57.8228 0 56.0911 0H30.6297C28.8981 0 27.4893 1.408 27.4893 3.13778V9.86133C27.4893 10.4356 27.9553 10.9004 28.529 10.9004ZM38.507 21.0436C38.1851 20.8578 37.9876 20.5147 37.9876 20.144V6.24267C37.9876 5.87111 38.186 5.52889 38.507 5.34311C38.829 5.15733 39.2248 5.15733 39.5467 5.34311L51.5917 12.2933C51.9137 12.4791 52.1111 12.8222 52.1111 13.1929C52.1111 13.5644 51.9128 13.9067 51.5917 14.0924L39.5467 21.0427C39.3858 21.1351 39.2061 21.1822 39.0273 21.1822C38.8477 21.1822 38.668 21.136 38.507 21.0436ZM40.0661 18.344L48.9929 13.1929L40.0661 8.04178V18.344Z" fill="url(#paint0_linear_3858_6459)"/>
<defs>
<linearGradient id="paint0_linear_3858_6459" x1="78" y1="80" x2="-9.34045" y2="62.8512" gradientUnits="userSpaceOnUse">
<stop stop-color="#FFC351"/>
<stop offset="1" stop-color="#FF3F73"/>
</linearGradient>
</defs>
</svg>
