<svg width="78" height="80" viewBox="0 0 78 80" fill="none" xmlns="http://www.w3.org/2000/svg">
<path d="M66.2723 19.5903C65.9618 19.5903 65.6512 19.4701 65.4139 19.2281C65.3343 19.146 65.1846 18.955 65.1305 18.8538C64.812 18.259 65.0349 17.5177 65.6305 17.1985C66.1767 16.9046 66.8472 17.0703 67.1991 17.5592C67.6163 18.048 67.594 18.7925 67.1274 19.2432C66.887 19.4741 66.5796 19.5903 66.2723 19.5903Z" fill="url(#paint0_linear_3858_6464)"/>
<path d="M21.0078 11.7374C20.6128 11.7374 20.2243 11.5463 19.9886 11.1928C19.6143 10.6306 19.7656 9.87182 20.3278 9.4968C25.9858 5.72424 32.6041 3.73047 39.4661 3.73047C43.7912 3.73047 48.0065 4.52113 51.9956 6.08175C52.6246 6.32778 52.9351 7.03643 52.6883 7.66546C52.4431 8.29528 51.736 8.6074 51.1038 8.35898C47.4013 6.91063 43.4854 6.1765 39.4661 6.1765C33.0882 6.1765 26.9397 8.02854 21.6846 11.532C21.4759 11.6713 21.2403 11.7374 21.0078 11.7374Z" fill="url(#paint1_linear_3858_6464)"/>
<path d="M39.4669 73.2139C36.6276 73.2139 33.8455 72.8778 31.1956 72.2154C30.5395 72.0514 30.1414 71.3873 30.3055 70.732C30.4679 70.0767 31.1431 69.681 31.788 69.8426C34.2452 70.4565 36.8282 70.7678 39.4669 70.7678C57.2707 70.7678 71.7542 56.2764 71.7542 38.4646C71.7542 34.3632 71.0026 30.3956 69.5216 26.6684C69.4324 26.4996 69.3814 26.3077 69.3814 26.1039C69.3814 25.4287 69.9213 24.8809 70.5965 24.8809C71.0965 24.8809 71.5615 25.1842 71.7478 25.6476C73.3753 29.6973 74.2002 34.0097 74.2002 38.4646C74.2002 57.6252 58.6195 73.2139 39.4669 73.2139Z" fill="url(#paint2_linear_3858_6464)"/>
<path d="M10.2621 56.0913C9.83537 56.0913 9.42133 55.8683 9.19679 55.4702C6.28735 50.3266 4.74902 44.4464 4.74902 38.4643C4.74902 32.0777 6.49596 25.8408 9.80352 20.4264C10.1523 19.8507 10.9055 19.6668 11.4836 20.0203C12.06 20.3722 12.2432 21.1255 11.8897 21.702C8.81937 26.7318 7.19505 32.5283 7.19505 38.4643C7.19505 44.0252 8.6235 49.4889 11.3243 54.2663C11.6571 54.8539 11.4501 55.6 10.8625 55.9328C10.673 56.0403 10.466 56.0913 10.2621 56.0913Z" fill="url(#paint3_linear_3858_6464)"/>
<path d="M39.4664 61.7176C36.4789 61.7176 33.5822 61.161 30.8559 60.0638C30.2301 59.8114 29.9259 59.0988 30.1791 58.4722C30.4307 57.8439 31.1457 57.5422 31.77 57.7946C34.2033 58.7747 36.7926 59.2716 39.4664 59.2716C50.9305 59.2716 60.2576 49.9373 60.2576 38.4644C60.2576 35.2572 59.506 32.0515 58.0855 29.1923C57.7845 28.5871 58.0314 27.853 58.6365 27.552C59.2464 27.2502 59.9774 27.5003 60.2767 28.103C61.8644 31.2991 62.7037 34.8821 62.7037 38.4644C62.7037 51.2862 52.2794 61.7176 39.4664 61.7176Z" fill="url(#paint4_linear_3858_6464)"/>
<path d="M21.9684 53.0346C21.5178 53.0346 21.1228 52.7934 20.911 52.4327C17.8583 48.3759 16.2451 43.5499 16.2451 38.4643C16.2451 32.5197 18.4778 26.876 22.5306 22.5747C26.8971 17.9064 33.0711 15.2271 39.4665 15.2271C42.9381 15.2271 46.2743 15.9747 49.3828 17.4485C49.9927 17.7384 50.2539 18.4677 49.964 19.0776C49.6758 19.6883 48.9464 19.9519 48.3349 19.6589C45.5577 18.3411 42.5734 17.6731 39.4665 17.6731C33.7447 17.6731 28.2221 20.0697 24.3142 24.2484C20.6865 28.0982 18.6911 33.1455 18.6911 38.4643C18.6911 43.0562 20.161 47.4124 22.9414 51.0616C23.1039 51.275 23.1915 51.5353 23.1915 51.8029C23.1915 52.4781 22.6437 53.0346 21.9684 53.0346Z" fill="url(#paint5_linear_3858_6464)"/>
<path d="M39.4706 49.7219C33.2695 49.7219 28.2246 44.6737 28.2246 38.4695C28.2246 32.2644 33.2695 27.2163 39.4706 27.2163C45.6749 27.2163 50.723 32.2644 50.723 38.4695C50.723 44.6737 45.6749 49.7219 39.4706 49.7219ZM39.4706 29.6623C34.6184 29.6623 30.6706 33.6133 30.6706 38.4695C30.6706 43.3257 34.6184 47.2758 39.4706 47.2758C44.3261 47.2758 48.277 43.3257 48.277 38.4695C48.277 33.6133 44.3261 29.6623 39.4706 29.6623Z" fill="url(#paint6_linear_3858_6464)"/>
<path d="M39.474 40.6981C39.1603 40.6981 38.8482 40.5787 38.6093 40.3398L20.4042 22.1331C19.9265 21.6554 19.9265 20.8815 20.4042 20.4037C20.8819 19.926 21.6559 19.926 22.1336 20.4037L40.3387 38.6104C40.8165 39.0881 40.8165 39.8621 40.3387 40.3398C40.0998 40.5787 39.7877 40.6981 39.474 40.6981Z" fill="url(#paint7_linear_3858_6464)"/>
<path d="M20.7294 23.2436C20.6482 23.2436 20.5654 23.2397 20.4842 23.2317L10.6857 22.281C10.106 22.2253 9.56142 21.9673 9.14897 21.5556L0.742331 13.1482C-0.0188684 12.3878 -0.213149 11.2675 0.245481 10.2945C0.705705 9.3207 1.70418 8.76175 2.76477 8.86367L9.43402 9.511L8.86551 2.76451C8.76041 1.69437 9.32096 0.705452 10.294 0.246025C11.2685 -0.214198 12.3896 -0.0175284 13.1493 0.742079L21.5559 9.14872C21.9683 9.56037 22.2263 10.1066 22.2805 10.6862L23.2312 20.4839C23.306 21.234 23.0417 21.9713 22.5082 22.5055C22.032 22.9817 21.3951 23.2436 20.7294 23.2436ZM2.52908 11.2985L10.8784 19.8262L20.7198 20.7968L19.8265 10.8781L11.4198 2.4715L11.9453 9.19808C12.0202 9.94814 11.7558 10.6854 11.2224 11.2197C10.6873 11.7532 9.94202 12.0199 9.19834 11.9459L2.52908 11.2985Z" fill="url(#paint8_linear_3858_6464)"/>
<path d="M62.1733 30.1985C53.9769 30.1985 47.3076 23.6574 47.3076 15.617C47.3076 7.5719 53.9769 1.02686 62.1733 1.02686C70.365 1.02686 77.0294 7.5719 77.0294 15.617C77.0294 23.6574 70.365 30.1985 62.1733 30.1985ZM62.1733 3.47289C55.3257 3.47289 49.7536 8.92072 49.7536 15.617C49.7536 22.3086 55.3257 27.7524 62.1733 27.7524C69.0161 27.7524 74.5834 22.3086 74.5834 15.617C74.5834 8.92072 69.0161 3.47289 62.1733 3.47289Z" fill="url(#paint9_linear_3858_6464)"/>
<path d="M62.1652 30.1962C61.7655 30.1962 61.369 30.1787 60.9884 30.1421C61.0186 30.15 60.9295 30.1429 60.8435 30.1357C60.7989 30.1357 60.6715 30.1285 60.6269 30.1237C60.302 30.0871 59.9851 30.0513 59.6857 29.9987L58.8911 29.8355C58.2844 29.7009 57.6601 29.5226 57.0614 29.3108C56.8336 29.2351 56.5661 29.1316 56.3193 29.0074C56.1903 28.9644 55.9705 28.8721 55.7332 28.7622C55.3988 28.6053 55.0915 28.4357 54.7841 28.2645C54.2459 27.958 53.7506 27.6387 53.2904 27.3027C53.0197 27.106 52.7697 26.9078 52.5165 26.6928C52.2346 26.4523 52.0753 26.0956 52.0865 25.7238C52.1964 22.124 54.3128 18.869 57.6092 17.2303C58.2175 16.9246 58.9484 17.177 59.2494 17.7805C59.5504 18.3857 59.3036 19.1198 58.6984 19.42C56.3925 20.5665 54.8526 22.749 54.5739 25.2094C54.6265 25.2492 54.679 25.2882 54.7332 25.328C55.1201 25.6115 55.539 25.8798 55.9546 26.1179C56.2317 26.2708 56.4913 26.4157 56.7683 26.5463C56.9451 26.6283 57.1171 26.6999 57.3034 26.7716C57.5566 26.891 57.7127 26.95 57.856 26.9977C58.3847 27.1841 58.907 27.3337 59.4469 27.454L60.138 27.5949C60.3594 27.6331 60.6253 27.6618 60.8896 27.6913C60.8498 27.6857 60.9342 27.6889 61.0234 27.6968C61.0616 27.6968 61.1827 27.7032 61.2209 27.7072C61.8276 27.7653 62.498 27.7653 63.108 27.7072C63.1175 27.7064 63.2991 27.6968 63.307 27.6968C63.3946 27.6905 63.4806 27.6849 63.5666 27.6849C63.6844 27.6626 63.9376 27.6331 64.1877 27.5893L64.3756 27.5583C64.4472 27.5471 64.5189 27.5384 64.5937 27.5177C65.3008 27.3759 65.8916 27.2119 66.4378 27.0105C66.6496 26.9436 66.7977 26.8879 66.9347 26.8194C67.4649 26.6116 67.8519 26.4077 68.2421 26.1919C68.4284 26.1028 68.5096 26.0486 68.5924 25.9969C68.973 25.7795 69.2947 25.5597 69.6148 25.3272C69.6434 25.2978 69.704 25.2468 69.7661 25.1982C69.4762 22.7769 67.9793 20.6207 65.7515 19.4725C65.2865 19.2997 64.9536 18.8515 64.9536 18.3252C64.9536 17.6499 65.5014 17.1021 66.1766 17.1021C66.3837 17.1021 66.6751 17.1897 66.8566 17.29C70.0591 18.9295 72.1325 22.1606 72.2583 25.7182C72.271 26.1107 72.0958 26.4858 71.7853 26.727C71.5894 26.8855 71.4684 26.9826 71.3649 27.0574C71.2948 27.1196 71.2216 27.1769 71.1499 27.231C70.6578 27.5925 70.2597 27.8624 69.8441 28.0973C69.7135 28.1809 69.5336 28.2892 69.3329 28.3784C68.9746 28.5822 68.4778 28.8434 67.914 29.0568C67.7723 29.1348 67.4968 29.2415 67.2213 29.3267C66.6146 29.5521 65.898 29.7511 65.1543 29.8968C65.0778 29.9215 64.9186 29.9486 64.7562 29.9749C64.3135 30.0505 64.0157 30.0863 63.7195 30.1214L63.4854 30.1357C63.3994 30.1421 63.3118 30.1476 63.2242 30.1476C62.9599 30.1787 62.5633 30.1962 62.1652 30.1962Z" fill="url(#paint10_linear_3858_6464)"/>
<path d="M62.1683 21.9428C58.3591 21.9428 55.292 17.4162 55.292 13.6684C55.292 9.93959 58.3766 6.90674 62.1683 6.90674C65.9583 6.90674 69.043 9.93959 69.043 13.6684C69.043 17.4162 65.9759 21.9428 62.1683 21.9428ZM62.1683 9.35277C59.7254 9.35277 57.738 11.2884 57.738 13.6684C57.738 16.2131 59.8863 19.4968 62.1683 19.4968C64.4487 19.4968 66.5969 16.2131 66.5969 13.6684C66.5969 11.2884 64.6095 9.35277 62.1683 9.35277Z" fill="url(#paint11_linear_3858_6464)"/>
<path d="M19.1908 80C11.0008 80 4.33789 73.3403 4.33789 65.155C4.33789 56.965 11.0008 50.3013 19.1908 50.3013C27.3761 50.3013 34.0358 56.965 34.0358 65.155C34.0358 73.3403 27.3761 80 19.1908 80ZM19.1908 52.7473C12.3496 52.7473 6.78392 58.3138 6.78392 65.155C6.78392 71.9915 12.3496 77.554 19.1908 77.554C26.0273 77.554 31.5898 71.9915 31.5898 65.155C31.5898 58.3138 26.0273 52.7473 19.1908 52.7473Z" fill="url(#paint12_linear_3858_6464)"/>
<path d="M19.1962 79.9977C18.7981 79.9977 18.4015 79.9802 18.0209 79.9436C17.4986 79.9101 16.9476 79.8369 16.4205 79.7278C16.1609 79.6856 15.852 79.6179 15.5415 79.5494L14.277 79.1688C14.0923 79.1075 13.9315 79.0462 13.7452 78.9642C13.4681 78.8703 13.1193 78.7078 12.7706 78.5438C12.0603 78.1966 11.4472 77.8399 10.8819 77.4466C10.7497 77.3821 10.5459 77.2308 10.3261 77.0533C10.0745 76.8669 9.78946 76.6519 9.52352 76.4202C9.24484 76.1782 9.09196 75.8239 9.10311 75.456C9.22891 71.7925 11.3469 68.485 14.6322 66.8224C15.2373 66.5183 15.9714 66.7603 16.2756 67.3623C16.5813 67.9642 16.3393 68.7008 15.7373 69.0057C13.4267 70.1746 11.8788 72.4144 11.5921 74.9464C11.6686 75.0045 11.7466 75.0627 11.8246 75.12C11.9632 75.2307 12.0555 75.3087 12.1702 75.3716C12.7403 75.761 13.2467 76.0548 13.8296 76.339C14.0875 76.4609 14.3598 76.5914 14.6465 76.6926C14.8424 76.7754 14.9395 76.8112 15.051 76.8486L16.0845 77.1647C16.3377 77.2205 16.6036 77.2794 16.8696 77.324C17.3346 77.4195 17.7677 77.4768 18.2152 77.5055C18.9223 77.5716 19.5545 77.5517 20.1819 77.5206C20.8523 77.4673 21.6008 77.3415 22.3716 77.148L22.7776 77.0349C23.0069 76.9617 23.2028 76.9028 23.3875 76.8223C23.4497 76.7953 23.5134 76.7738 23.5802 76.7571C23.5834 76.7555 23.8223 76.6679 23.8255 76.6663C24.0436 76.5755 24.3191 76.4537 24.5787 76.3319C25.1393 76.0508 25.6441 75.7546 26.0963 75.4401C26.289 75.3206 26.4101 75.2354 26.5183 75.151C26.539 75.1343 26.5581 75.12 26.5789 75.1057C26.59 75.0969 26.6011 75.0881 26.6123 75.0802C26.6664 75.0404 26.7206 74.999 26.7731 74.9576C26.504 72.4184 24.9593 70.173 22.6423 69.0065C22.0387 68.7031 21.7951 67.9674 22.0992 67.3647C22.4034 66.7603 23.1343 66.5151 23.7411 66.8216C27.0359 68.4794 29.1491 71.7901 29.2574 75.4616C29.2669 75.831 29.1109 76.1854 28.8306 76.4266C28.5678 76.6504 28.3226 76.8598 28.0583 77.0525C28.0471 77.0612 28.036 77.07 28.0232 77.0787C28.0216 77.0803 28.02 77.0811 28.0184 77.0827C27.8337 77.226 27.6299 77.3702 27.4229 77.4936C26.9451 77.8304 26.34 78.1847 25.6457 78.5319C25.3256 78.6831 25.015 78.8209 24.7204 78.9427C24.5214 79.0192 24.3956 79.0661 24.2809 79.1004C24.0389 79.1999 23.7888 79.2803 23.5452 79.356C23.5245 79.3623 23.3987 79.4005 23.3764 79.4061L22.9655 79.5208C22.0642 79.7469 21.1788 79.895 20.3364 79.9611C19.9383 79.981 19.5768 79.9977 19.1962 79.9977Z" fill="url(#paint13_linear_3858_6464)"/>
<path d="M19.1873 71.5806C15.3813 71.5806 12.3174 66.9784 12.3174 63.1676C12.3174 59.3791 15.3988 56.2969 19.1873 56.2969C22.9758 56.2969 26.0572 59.3791 26.0572 63.1676C26.0572 66.9784 22.9933 71.5806 19.1873 71.5806ZM19.1873 58.7429C16.7476 58.7429 14.7634 60.7279 14.7634 63.1676C14.7634 65.7729 16.9085 69.1346 19.1873 69.1346C21.4661 69.1346 23.6112 65.7729 23.6112 63.1676C23.6112 60.7279 21.627 58.7429 19.1873 58.7429Z" fill="url(#paint14_linear_3858_6464)"/>
<defs>
<linearGradient id="paint0_linear_3858_6464" x1="67.4956" y1="19.5903" x2="64.5846" y2="18.9872" gradientUnits="userSpaceOnUse">
<stop stop-color="#FFC351"/>
<stop offset="1" stop-color="#FF3F73"/>
</linearGradient>
<linearGradient id="paint1_linear_3858_6464" x1="52.7731" y1="11.7374" x2="29.903" y2="-7.99721" gradientUnits="userSpaceOnUse">
<stop stop-color="#FFC351"/>
<stop offset="1" stop-color="#FF3F73"/>
</linearGradient>
<linearGradient id="paint2_linear_3858_6464" x1="74.2002" y1="73.2139" x2="22.9259" y2="63.4532" gradientUnits="userSpaceOnUse">
<stop stop-color="#FFC351"/>
<stop offset="1" stop-color="#FF3F73"/>
</linearGradient>
<linearGradient id="paint3_linear_3858_6464" x1="12.0698" y1="56.0913" x2="3.23162" y2="55.7175" gradientUnits="userSpaceOnUse">
<stop stop-color="#FFC351"/>
<stop offset="1" stop-color="#FF3F73"/>
</linearGradient>
<linearGradient id="paint4_linear_3858_6464" x1="62.7037" y1="61.7176" x2="24.7645" y2="54.1611" gradientUnits="userSpaceOnUse">
<stop stop-color="#FFC351"/>
<stop offset="1" stop-color="#FF3F73"/>
</linearGradient>
<linearGradient id="paint5_linear_3858_6464" x1="50.0823" y1="53.0346" x2="10.5475" y2="45.6242" gradientUnits="userSpaceOnUse">
<stop stop-color="#FFC351"/>
<stop offset="1" stop-color="#FF3F73"/>
</linearGradient>
<linearGradient id="paint6_linear_3858_6464" x1="50.723" y1="49.7219" x2="24.6554" y2="44.2642" gradientUnits="userSpaceOnUse">
<stop stop-color="#FFC351"/>
<stop offset="1" stop-color="#FF3F73"/>
</linearGradient>
<linearGradient id="paint7_linear_3858_6464" x1="40.697" y1="40.6981" x2="16.7702" y2="35.6874" gradientUnits="userSpaceOnUse">
<stop stop-color="#FFC351"/>
<stop offset="1" stop-color="#FF3F73"/>
</linearGradient>
<linearGradient id="paint8_linear_3858_6464" x1="23.2436" y1="23.2436" x2="-3.68676" y2="17.6035" gradientUnits="userSpaceOnUse">
<stop stop-color="#FFC351"/>
<stop offset="1" stop-color="#FF3F73"/>
</linearGradient>
<linearGradient id="paint9_linear_3858_6464" x1="77.0294" y1="30.1985" x2="42.6483" y2="22.8621" gradientUnits="userSpaceOnUse">
<stop stop-color="#FFC351"/>
<stop offset="1" stop-color="#FF3F73"/>
</linearGradient>
<linearGradient id="paint10_linear_3858_6464" x1="72.2589" y1="30.1962" x2="50.1609" y2="23.0672" gradientUnits="userSpaceOnUse">
<stop stop-color="#FFC351"/>
<stop offset="1" stop-color="#FF3F73"/>
</linearGradient>
<linearGradient id="paint11_linear_3858_6464" x1="69.043" y1="21.9428" x2="53.0006" y2="18.8702" gradientUnits="userSpaceOnUse">
<stop stop-color="#FFC351"/>
<stop offset="1" stop-color="#FF3F73"/>
</linearGradient>
<linearGradient id="paint12_linear_3858_6464" x1="34.0358" y1="80" x2="-0.372691" y2="72.7939" gradientUnits="userSpaceOnUse">
<stop stop-color="#FFC351"/>
<stop offset="1" stop-color="#FF3F73"/>
</linearGradient>
<linearGradient id="paint13_linear_3858_6464" x1="29.2578" y1="79.9977" x2="7.1096" y2="72.9726" gradientUnits="userSpaceOnUse">
<stop stop-color="#FFC351"/>
<stop offset="1" stop-color="#FF3F73"/>
</linearGradient>
<linearGradient id="paint14_linear_3858_6464" x1="26.0572" y1="71.5806" x2="10.0087" y2="68.559" gradientUnits="userSpaceOnUse">
<stop stop-color="#FFC351"/>
<stop offset="1" stop-color="#FF3F73"/>
</linearGradient>
</defs>
</svg>
