<svg width="80" height="80" viewBox="0 0 80 80" fill="none" xmlns="http://www.w3.org/2000/svg">
<path d="M40.4375 36.7373C40.85 36.7373 41.2625 36.5248 41.4875 36.1373C43.2 33.2123 44.1 29.8623 44.1 26.4373C44.1 15.7498 35.4 7.0498 24.7125 7.0498C24.0375 7.0498 23.5 7.58731 23.5 8.26231V26.4373C23.5 26.8748 23.725 27.2748 24.1 27.4873L39.8375 36.5748C40.025 36.6873 40.225 36.7373 40.4375 36.7373ZM25.9125 9.51231C34.7 10.1373 41.6625 17.4873 41.6625 26.4373C41.6625 29.0248 41.075 31.5623 39.95 33.8498L25.9 25.7373V9.51231H25.9125Z" fill="url(#paint0_linear_3865_1104)"/>
<path d="M78.3498 15.575C78.2873 15.425 78.1998 15.2875 78.0873 15.1875L63.2748 0.3625C63.1623 0.25 63.0248 0.1625 62.8873 0.1C62.7373 0.0375 62.5748 0 62.4248 0H19.1873C17.1873 0 15.5498 1.625 15.5498 3.6375V9.625C7.4748 11.9625 1.5498 19.4125 1.5498 28.2375C1.5498 33.5625 3.7123 38.4 7.2123 41.9125C7.2248 41.925 7.2248 41.9375 7.2373 41.95C7.2498 41.9625 7.2623 41.9625 7.2748 41.975C9.5498 44.2375 12.3873 45.9375 15.5498 46.85V76.3625C15.5498 78.3625 17.1748 80 19.1873 80H74.7998C76.7998 80 78.4373 78.375 78.4373 76.3625V16.0375C78.4373 15.875 78.4123 15.7125 78.3498 15.575ZM63.6248 4.1375L74.2998 14.825H63.6248V4.1375ZM19.7373 11.3125V27.7375L8.1498 39.325C5.5623 36.35 3.9873 32.475 3.9873 28.2375C3.9873 19.2875 10.9498 11.9375 19.7373 11.3125ZM9.8498 41.05L21.1373 29.7625L34.9748 37.7625C31.8498 42.3875 26.5748 45.2125 20.9373 45.2125C16.6998 45.2 12.8373 43.625 9.8498 41.05ZM74.7998 77.575H19.1873C18.5123 77.575 17.9748 77.0375 17.9748 76.3625V47.375C18.9498 47.525 19.9248 47.625 20.9373 47.625C27.8373 47.625 34.2748 43.9125 37.7248 37.9375C37.7373 37.925 37.7373 37.9 37.7373 37.8875C37.7873 37.8 37.8123 37.7 37.8373 37.6C37.8498 37.5375 37.8748 37.4875 37.8748 37.425C37.8748 37.3875 37.8873 37.3625 37.8873 37.3375C37.8873 37.275 37.8623 37.2125 37.8498 37.15C37.8373 37.0875 37.8373 37.025 37.8123 36.9625C37.7873 36.875 37.7373 36.8 37.6998 36.725C37.6623 36.6625 37.6373 36.6125 37.5873 36.5625C37.5248 36.5 37.4623 36.4375 37.3873 36.3875C37.3498 36.3625 37.3248 36.3125 37.2873 36.3L22.1623 27.5625V10.0625C22.1623 9.3875 21.6248 8.85 20.9498 8.85C19.9373 8.85 18.9498 8.95 17.9873 9.1V3.6375C17.9873 2.9625 18.5248 2.425 19.1998 2.425H61.2123V16.0375C61.2123 16.7125 61.7498 17.25 62.4248 17.25H76.0248V76.3625C76.0123 77.0375 75.4748 77.575 74.7998 77.575Z" fill="url(#paint1_linear_3865_1104)"/>
<path d="M68.0369 44.5376C65.7494 44.5376 63.8994 46.4001 63.8994 48.6751C63.8994 49.3876 64.0994 50.0501 64.4119 50.6376L58.4619 56.7126C57.8869 56.4126 57.2619 56.2376 56.5744 56.2376C55.0494 56.2376 53.7369 57.0751 53.0119 58.3001L44.4619 56.3126C44.3119 54.1626 42.5369 52.4626 40.3494 52.4626C38.0619 52.4626 36.2119 54.3251 36.2119 56.6001C36.2119 57.2626 36.3869 57.8876 36.6744 58.4501L27.9744 66.7626C27.3744 66.4251 26.6994 66.2251 25.9744 66.2251C23.6869 66.2251 21.8369 68.0876 21.8369 70.3626C21.8369 72.6501 23.6994 74.5001 25.9744 74.5001C28.2619 74.5001 30.1119 72.6376 30.1119 70.3626C30.1119 69.7001 29.9369 69.0751 29.6494 68.5126L38.3494 60.2001C38.9494 60.5376 39.6244 60.7376 40.3494 60.7376C41.8744 60.7376 43.1994 59.9001 43.9119 58.6751L52.4619 60.6626C52.6119 62.8126 54.3869 64.5126 56.5744 64.5126C58.8619 64.5126 60.7119 62.6501 60.7119 60.3751C60.7119 59.6626 60.5119 59.0001 60.1994 58.4126L66.1494 52.3376C66.7244 52.6376 67.3494 52.8126 68.0369 52.8126C70.3244 52.8126 72.1744 50.9501 72.1744 48.6751C72.1744 46.3876 70.3119 44.5376 68.0369 44.5376ZM25.9619 72.0751C25.0119 72.0751 24.2494 71.3001 24.2494 70.3626C24.2494 69.4126 25.0244 68.6501 25.9619 68.6501C26.4369 68.6501 26.8619 68.8376 27.1744 69.1501C27.1869 69.1626 27.1869 69.1751 27.1869 69.1751C27.1869 69.1751 27.1994 69.1751 27.1994 69.1876C27.4869 69.5001 27.6744 69.9126 27.6744 70.3626C27.6744 71.3126 26.9119 72.0751 25.9619 72.0751ZM40.3494 58.3126C39.3994 58.3126 38.6369 57.5376 38.6369 56.6001C38.6369 55.6501 39.4119 54.8876 40.3494 54.8876C41.2994 54.8876 42.0619 55.6626 42.0619 56.6001C42.0619 57.5376 41.2869 58.3126 40.3494 58.3126ZM56.5744 62.0876C55.6244 62.0876 54.8619 61.3126 54.8619 60.3751C54.8619 59.4251 55.6369 58.6626 56.5744 58.6626C57.0369 58.6626 57.4494 58.8501 57.7494 59.1376C57.7494 59.1376 57.7619 59.1501 57.7619 59.1626C57.7744 59.1751 57.7869 59.1751 57.7869 59.1876C58.0869 59.5001 58.2744 59.9251 58.2744 60.3876C58.2869 61.3251 57.5119 62.0876 56.5744 62.0876ZM68.0369 50.3876C67.0869 50.3876 66.3244 49.6126 66.3244 48.6751C66.3244 47.7251 67.0994 46.9626 68.0369 46.9626C68.9869 46.9626 69.7494 47.7376 69.7494 48.6751C69.7494 49.6251 68.9869 50.3876 68.0369 50.3876Z" fill="url(#paint2_linear_3865_1104)"/>
<path d="M47.7496 23.0998H62.4246C63.0996 23.0998 63.6371 22.5623 63.6371 21.8873C63.6371 21.2123 63.0996 20.6748 62.4246 20.6748H47.7496C47.0746 20.6748 46.5371 21.2123 46.5371 21.8873C46.5371 22.5623 47.0746 23.0998 47.7496 23.0998Z" fill="url(#paint3_linear_3865_1104)"/>
<path d="M47.7496 29.4499H69.0871C69.7621 29.4499 70.2996 28.9124 70.2996 28.2374C70.2996 27.5624 69.7621 27.0249 69.0871 27.0249H47.7496C47.0746 27.0249 46.5371 27.5624 46.5371 28.2374C46.5371 28.9124 47.0746 29.4499 47.7496 29.4499Z" fill="url(#paint4_linear_3865_1104)"/>
<path d="M47.7496 35.8H69.0871C69.7621 35.8 70.2996 35.2625 70.2996 34.5875C70.2996 33.9125 69.7621 33.375 69.0871 33.375H47.7496C47.0746 33.375 46.5371 33.9125 46.5371 34.5875C46.5371 35.2625 47.0746 35.8 47.7496 35.8Z" fill="url(#paint5_linear_3865_1104)"/>
<defs>
<linearGradient id="paint0_linear_3865_1104" x1="44.1" y1="36.7373" x2="19.701" y2="33.1915" gradientUnits="userSpaceOnUse">
<stop stop-color="#FFC351"/>
<stop offset="1" stop-color="#FF3F73"/>
</linearGradient>
<linearGradient id="paint1_linear_3865_1104" x1="78.4373" y1="80" x2="-10.9321" y2="62.0113" gradientUnits="userSpaceOnUse">
<stop stop-color="#FFC351"/>
<stop offset="1" stop-color="#FF3F73"/>
</linearGradient>
<linearGradient id="paint2_linear_3865_1104" x1="72.1744" y1="74.5001" x2="18.0012" y2="55.4392" gradientUnits="userSpaceOnUse">
<stop stop-color="#FFC351"/>
<stop offset="1" stop-color="#FF3F73"/>
</linearGradient>
<linearGradient id="paint3_linear_3865_1104" x1="63.6371" y1="23.0998" x2="57.1357" y2="13.4983" gradientUnits="userSpaceOnUse">
<stop stop-color="#FFC351"/>
<stop offset="1" stop-color="#FF3F73"/>
</linearGradient>
<linearGradient id="paint4_linear_3865_1104" x1="70.2996" y1="29.4499" x2="64.7852" y2="18.1331" gradientUnits="userSpaceOnUse">
<stop stop-color="#FFC351"/>
<stop offset="1" stop-color="#FF3F73"/>
</linearGradient>
<linearGradient id="paint5_linear_3865_1104" x1="70.2996" y1="35.8" x2="64.7852" y2="24.4832" gradientUnits="userSpaceOnUse">
<stop stop-color="#FFC351"/>
<stop offset="1" stop-color="#FF3F73"/>
</linearGradient>
</defs>
</svg>
