<svg width="233" height="50" viewBox="0 0 233 50" fill="none" xmlns="http://www.w3.org/2000/svg">
<g clip-path="url(#clip0_4259_5314)">
<path d="M27.3204 37.5531H34.4764C33.4256 41.526 31.42 44.5516 28.4656 46.63C25.5051 48.805 21.7893 49.8865 17.3075 49.8865C11.8708 49.8865 7.62961 48.1414 4.57624 44.6451C1.52288 41.2439 0 36.3721 0 30.0328C0 23.986 1.47414 19.2605 4.43461 15.8593C7.48037 12.3616 11.7292 10.6074 17.1659 10.6074C22.8919 10.6074 27.3204 12.3118 30.4697 15.713C32.186 17.7945 33.4241 20.2047 34.1916 22.9438H24.1741C23.6959 22.0026 23.2208 21.2967 22.7487 20.8186C21.5 19.4943 19.7395 18.8322 17.4552 18.8322C15.3506 18.8322 13.6358 19.4958 12.3033 20.8186C10.587 22.71 9.72813 25.8367 9.72813 30.1851C9.72813 34.529 10.587 37.5984 12.3018 39.3963C13.5353 40.9076 15.3932 41.6632 17.8816 41.6632C19.5035 41.6632 20.8786 41.3359 22.0299 40.6723C22.3162 40.5803 22.5751 40.4113 22.8127 40.1761C23.0533 39.9347 23.3137 39.6783 23.6046 39.3963C23.7904 39.1097 24.1741 38.7356 24.7437 38.262C25.3239 37.7944 26.1782 37.5531 27.3204 37.5531Z" fill="black"/>
<path fill-rule="evenodd" clip-rule="evenodd" d="M37.0271 38.9064C37.8814 41.7903 39.319 44.0799 41.3185 45.7797C43.2252 47.4796 45.7821 48.6877 48.9771 49.3906C52.1675 50.1055 55.3427 50.0391 58.489 49.1824C62.0129 48.4253 64.9231 46.4856 67.2226 43.3679C68.2597 41.8566 69.1262 40.0165 69.7933 37.8431C70.4572 35.6681 70.7907 33.0678 70.7907 30.0331C70.7907 25.8762 69.976 22.2428 68.3541 19.1191C66.6424 15.6259 63.9744 13.1613 60.3514 11.7465C57.2052 10.6063 53.6751 10.3061 49.7629 10.8219C45.8506 11.3438 42.6556 13.024 40.1779 15.8596C38.6444 17.555 37.5281 19.6892 36.8062 22.2428C36.1054 24.7368 35.7469 27.313 35.7402 29.9019C35.7402 33.009 36.1666 36.0195 37.0271 38.9064ZM45.4775 30.5354C45.2811 26.2322 46.1841 22.9969 48.1867 20.8189C48.8537 20.1613 49.9075 19.6153 51.336 19.1885C52.7372 18.7662 54.2371 18.7915 55.6229 19.2609C57.0575 19.7375 58.326 20.8189 59.4164 22.5248C60.5189 24.2247 61.0626 26.7782 61.0626 30.1839C60.9712 33.9592 60.3514 36.7013 59.2047 38.4026C58.061 40.1025 56.7422 41.1658 55.2681 41.5957C53.836 42.0233 52.3016 41.9719 50.902 41.4494C49.4781 40.9336 48.4745 40.2986 47.905 39.5384C46.4704 37.8431 45.6587 34.8446 45.4775 30.5354Z" fill="black"/>
<path d="M105.552 49.1836H100.549C99.118 49.1836 97.9484 48.7311 97.0438 47.8337C96.1347 46.9317 95.6884 45.7794 95.6884 44.3616V25.078C95.6884 22.808 94.991 21.1504 93.6082 20.1082C92.2783 19.0865 90.6403 18.5372 88.9573 18.5486C87.2965 18.5305 85.6804 19.0815 84.3826 20.1082C83.0455 21.1489 82.377 22.808 82.377 25.078V49.1836H72.3687V27.0614C72.3687 20.6361 74.0545 16.3329 77.4459 14.1534C80.8282 11.9815 84.5684 10.802 88.6741 10.6074C92.8711 10.6074 96.7301 11.6979 100.263 13.8714C103.793 16.0433 105.552 20.4445 105.552 27.0614V49.1836Z" fill="black"/>
<path fill-rule="evenodd" clip-rule="evenodd" d="M180.715 37.5531H173.56C172.423 37.5531 171.53 37.7929 170.918 38.262C170.297 38.7356 169.933 39.1097 169.846 39.3963L169.621 39.618L169.054 40.1761C168.835 40.4004 168.565 40.5709 168.267 40.6738C167.123 41.3374 165.74 41.6632 164.122 41.6632C161.641 41.6632 159.774 40.9076 158.539 39.3963C157.203 37.9785 156.489 35.802 156.398 32.8714H181.143C181.24 32.6859 181.287 32.357 181.287 31.8789V30.3193C181.287 24.084 179.766 19.2153 176.714 15.713C173.56 12.3118 169.127 10.6074 163.401 10.6074C157.975 10.6074 153.723 12.3616 150.675 15.8593C147.717 19.2605 146.232 23.986 146.232 30.0328C146.232 36.3721 147.76 41.2439 150.813 44.6451C153.865 48.1414 158.114 49.8865 163.548 49.8865C168.032 49.8865 171.753 48.8035 174.712 46.6285C177.66 44.5501 179.667 41.5245 180.715 37.5531ZM170.985 26.4898H156.398C156.489 24.0343 157.203 22.1459 158.54 20.8186C159.877 19.4943 161.591 18.8322 163.688 18.8322C165.978 18.8322 167.742 19.4958 168.987 20.8186C170.131 22.0463 170.793 23.9362 170.985 26.4898Z" fill="black"/>
<path d="M182.862 49.1828V30.8857C182.862 27.2024 183.414 24.1074 184.507 21.5991C185.605 19.0954 187.104 17.0878 189.015 15.578C190.827 14.1542 192.948 13.1165 195.383 12.4558C197.829 11.792 200.353 11.4572 202.888 11.4604H204.321V21.5313H201.035C198.266 21.5313 196.21 22.1949 194.882 23.5086C193.544 24.8389 192.875 26.9204 192.875 29.756V49.1828H182.862ZM222.198 49.1828C219.058 49.3653 215.644 49.3231 211.975 49.0396C208.299 48.756 206.471 46.4408 206.471 42.0923V0.395508H211.62C212.854 0.395508 213.955 0.873637 214.907 1.81783C215.862 2.76353 216.34 3.89928 216.34 5.22356V11.6021H222.197V13.5886C222.197 15.0018 221.725 16.1617 220.776 17.0637C220.321 17.5016 219.783 17.8461 219.193 18.0775C218.603 18.3089 217.973 18.4226 217.339 18.4121H216.341V39.397C216.341 41.0003 217.287 41.8073 219.201 41.8073H222.197L222.198 49.1828Z" fill="black"/>
<path opacity="0.5" d="M109.402 13.665L107.163 19.11L111.843 29.5926L116.931 16.4871L109.402 13.665Z" fill="black"/>
<path opacity="0.75" d="M122.424 12.6562L114.082 34.433L118.761 45.1193L130.361 15.6819L122.424 12.6562Z" fill="black"/>
<path d="M146.234 15.682L143.79 1.76953L132.597 10.2371L135.65 11.4468L120.796 49.5554H129.342L143.181 14.4724L146.234 15.682ZM228.288 4.82534C226.016 4.82534 224.176 6.67451 224.176 8.92036C224.176 11.1828 226.016 13.0139 228.288 13.0139C229.385 13.0139 230.436 12.5824 231.212 11.8145C231.987 11.0465 232.423 10.0049 232.423 8.91885C232.423 7.83279 231.987 6.7912 231.212 6.02323C230.436 5.25527 229.385 4.82383 228.288 4.82383V4.82534ZM228.288 12.222C227.851 12.2224 227.418 12.1371 227.014 11.9711C226.61 11.805 226.244 11.5614 225.935 11.2543C225.627 10.9473 225.383 10.5829 225.218 10.182C225.052 9.78119 224.968 9.35189 224.971 8.91885C224.971 7.10286 226.447 5.61719 228.288 5.61719C229.16 5.63565 229.99 5.99169 230.6 6.609C231.21 7.22632 231.552 8.05578 231.552 8.91961C231.552 9.78344 231.21 10.6129 230.6 11.2302C229.99 11.8475 229.16 12.2036 228.288 12.222ZM230.112 10.8842C229.234 9.28235 229.284 9.36531 229.234 9.30045C229.631 9.06817 229.881 8.60664 229.881 8.07873C229.881 7.219 229.383 6.67451 228.206 6.67451H226.895C226.842 6.6753 226.792 6.69641 226.755 6.73334C226.718 6.77027 226.697 6.82007 226.697 6.8721V10.9671C226.697 11.0833 226.779 11.1647 226.895 11.1647H227.542C227.595 11.1639 227.645 11.1429 227.682 11.106C227.719 11.0691 227.741 11.0193 227.741 10.9671V9.59608H228.271L229.051 11.0667C229.085 11.1315 229.167 11.1647 229.234 11.1647H229.93C230.096 11.1647 230.18 11.0169 230.112 10.8842ZM228.288 8.6549H227.741V7.59909H228.189C228.719 7.59909 228.835 7.79668 228.835 8.127C228.835 8.47391 228.637 8.6549 228.288 8.6549Z" fill="black"/>
</g>
<defs>
<clipPath id="clip0_4259_5314">
<rect width="233" height="50" fill="white"/>
</clipPath>
</defs>
</svg>
