<svg version="1.2" xmlns="http://www.w3.org/2000/svg" viewBox="94.99999999999997 83 512.9999999999999 131" width="514" height="131">
	<style>
		.s0 { fill: #ffffff } 
		.s1 { fill: #bbe9f4 } 
	</style>
	<g>
		<path class="s0" d="m249.14 189.26l-3.15 9.29h-9.4l16.24-46.41h11.21l16.24 46.41h-9.4l-3.15-9.29zm9.28-27.29l-6.52 19.07h13.01l-6.52-19.07z"/>
		<path class="s0" d="m314.94 184.18q0.01 3.26-1.06 6.05-1.08 2.78-3.05 4.81-1.97 2.04-4.76 3.19-2.79 1.14-6.28 1.13-3.49 0.01-6.32-1.13c-1.88-0.77-3.47-1.8-4.81-3.16q-1.97-2.04-3.05-4.82-1.07-2.76-1.06-6.05v-28.8h8.85v8.77h8.23v8.22h-8.23v12.25q0 1.21 0.37 2.35 0.36 1.14 1.14 2.05c0.52 0.59 1.16 1.09 1.98 1.43q1.2 0.53 2.88 0.55c1.11 0 2.01-0.18 2.83-0.55q1.19-0.53 1.98-1.43 0.77-0.89 1.14-2.05 0.37-1.14 0.37-2.35v-3.28h8.85z"/>
		<path class="s0" d="m352.48 198.55h-8.85v-20.13q-0.01-0.73-0.2-1.88-0.19-1.14-0.87-2.17-0.66-1.04-1.96-1.78-1.27-0.74-3.44-0.74-3.04-0.01-4.89 1.8-1.86 1.82-1.85 4.75v20.12h-8.86v-49.76h8.86l0.07 17.11q1.67-1.26 3.67-1.97 1.98-0.7 4.26-0.69 3.15 0 5.78 1.11 2.6 1.1 4.46 3.08 1.86 1.97 2.85 4.8 1.02 2.81 1.02 6.22v20.13z"/>
		<path class="s0" d="m367.24 184.77q0.85 3.21 3.19 5.01 2.32 1.81 5.48 1.8 2.23 0.01 4.2-0.96 1.97-0.96 3.12-3.04h9.47q-1.56 5.3-5.88 8.52-4.32 3.25-10.83 3.24c-2.41 0-4.71-0.47-6.85-1.41q-3.22-1.41-5.62-3.85-2.41-2.44-3.82-5.73-1.42-3.27-1.41-7.02-0.01-3.73 1.41-7.06 1.41-3.3 3.82-5.75 2.42-2.44 5.62-3.88 3.24-1.44 6.85-1.43 3.83-0.01 7.21 1.43 3.39 1.44 5.81 4.22 2.42 2.79 3.62 6.79c0.81 2.67 1.04 5.71 0.74 9.09h-26.11zm17.33-7.21q-0.82-3.01-3.12-4.79-2.32-1.78-5.53-1.78-3.03 0-5.31 1.78c-1.51 1.18-2.6 2.77-3.22 4.79z"/>
		<path class="s0" d="m430.41 198.55h-8.85v-20.13q0-0.75-0.2-1.9c-0.12-0.79-0.42-1.53-0.84-2.27q-0.64-1.11-1.91-1.88-1.26-0.77-3.5-0.77-3.02 0-4.86 1.95-1.84 1.93-1.83 4.89v20.13h-8.85v-34.45h8.45v3.33q1.67-1.93 3.9-3.08 2.22-1.15 5.03-1.14 3.02 0 5.53 1.11 2.52 1.1 4.26 3.09 1.74 1.97 2.73 4.79 0.97 2.82 0.97 6.22v20.13z"/>
		<path class="s0" d="m463.32 198.53h3.1l5.35-15.29v-19.14h-8.45v3.68q-2.01-2.16-4.71-3.31-2.69-1.15-5.91-1.14c-2.13 0-4.36 0.47-6.34 1.38q-2.99 1.37-5.23 3.78-2.24 2.4-3.58 5.73-1.3 3.33-1.31 7.14 0.01 3.82 1.31 7.11 1.31 3.3 3.58 5.71 2.24 2.41 5.23 3.78 2.98 1.37 6.34 1.38c2.24 0 4.12-0.37 5.91-1.14q2.67-1.15 4.71-3.31v3.68zm-1.09-13.36q-0.72 1.77-1.91 3.07c-0.8 0.86-1.76 1.55-2.83 2.07q-1.61 0.77-3.45 0.77-1.81-0.01-3.44-0.75-1.64-0.73-2.83-2.02-1.21-1.29-1.91-3.06-0.71-1.77-0.72-3.83c0-1.38 0.23-2.67 0.72-3.9q0.71-1.83 1.91-3.14 1.23-1.3 2.83-2.08 1.61-0.77 3.44-0.76 1.82-0.01 3.45 0.76 1.64 0.78 2.83 2.1 1.21 1.33 1.91 3.14 0.71 1.81 0.71 3.88c0 1.38-0.24 2.59-0.71 3.75z"/>
		<path class="s1" d="m486.35 189.91l-3.15 9.28h-9.4l16.24-46.41h11.21l16.24 46.41h-9.39l-3.15-9.28zm9.24-27.3l-6.52 19.07h13.02l-6.52-19.07z"/>
		<path class="s1" d="m554.69 199.17h-8.46v-3.68q-2.09 2.15-4.74 3.31-2.64 1.14-5.87 1.13c-2.16 0-4.37-0.47-6.35-1.38q-2.99-1.37-5.23-3.78-2.23-2.41-3.57-5.7c-0.87-2.2-1.32-4.55-1.32-7.12 0-2.57 0.45-4.91 1.32-7.14q1.3-3.32 3.57-5.72 2.24-2.41 5.23-3.78 2.99-1.38 6.35-1.39 3.02 0 5.6 1.04 2.57 1.05 4.59 2.99v-18.6h8.85v49.77zm-8.85-17.14q-0.01-2.07-0.72-3.88-0.71-1.81-1.91-3.14-1.23-1.33-2.83-2.1-1.61-0.77-3.44-0.76-1.82-0.01-3.45 0.76-1.64 0.78-2.83 2.08-1.21 1.29-1.91 3.13-0.71 1.83-0.71 3.91-0.02 2.08 0.71 3.82 0.72 1.78 1.91 3.07 1.23 1.31 2.83 2.02 1.61 0.74 3.45 0.74 1.81 0.01 3.44-0.76 1.64-0.78 2.83-2.08 1.2-1.29 1.91-3.06 0.71-1.78 0.72-3.75z"/>
		<path class="s1" d="m592.15 188.35q0.01 2.55-1.14 4.69c-0.74 1.43-1.81 2.64-3.12 3.68q-2.01 1.55-4.79 2.4-2.78 0.86-6.07 0.86-3.31 0.01-6.1-0.84-2.84-0.84-4.96-2.39-2.15-1.56-3.52-3.78-1.38-2.21-1.79-5.02h9q0.47 1.15 1.32 1.88 0.84 0.75 1.83 1.24 1.02 0.51 2.11 0.69 1.09 0.19 2.11 0.2 2.67 0 4.46-0.77 1.78-0.78 1.79-2.3-0.01-0.74-0.28-1.26-0.27-0.52-1.06-0.94-0.82-0.4-2.23-0.76-1.42-0.37-3.7-0.69-2.35-0.33-4.88-0.92-2.53-0.55-4.69-1.7-2.15-1.14-3.55-2.99-1.38-1.84-1.38-4.72-0.01-2 0.91-4 0.92-2 2.73-3.55c1.22-1.04 2.75-1.86 4.59-2.52q2.79-0.97 6.54-0.97 2.94 0 5.51 0.77 2.56 0.77 4.54 2.17 1.97 1.41 3.24 3.41 1.27 2.01 1.69 4.42h-9.2q-0.41-1.19-1.83-2.05-1.46-0.84-3.92-0.84-3.1 0-4.44 0.92-1.34 0.89-1.34 1.82-0.01 1.33 1.81 1.95c1.22 0.4 2.88 0.8 5.03 1.14q3.24 0.53 5.96 1.24 2.72 0.69 4.66 1.87 1.93 1.18 3.05 3.02 1.11 1.84 1.11 4.64z"/>
		<path class="s1" d="m314.94 164.15h-8.85v8.32h8.85z"/>
		<path class="s0" d="m168.31 184.82h-52.7v4.39h52.7z"/>
		<path class="s0" d="m109.09 193.29c3.76 0 6.8-3.03 6.8-6.77 0-3.74-3.04-6.77-6.8-6.77-3.75 0-6.79 3.03-6.79 6.77 0 3.74 3.04 6.77 6.79 6.77z"/>
		<path class="s0" d="m212.54 197.74c-7.41 0-19.07-1.09-28.41-6.85l2.33-3.73c10.66 6.57 25.21 6.38 30.69 6.03l-1.24-10.13 5.13-9.13 3.77-2.52-7.41-13.59v-16.05h4.41v14.94l8.81 16.13-6.25 4.15-3.92 6.96 1.61 13.12-2.18 0.27c-0.3 0.05-3.15 0.37-7.34 0.37z"/>
		<path class="s0" d="m191.59 164.59l-2.58-3.56 32.55-23.39-3.66-8.99-33.6 24.58-2.61-3.56 38.19-27.91 7.07 17.44z"/>
		<path class="s0" d="m180.55 173.33c-6.67 0-12.1-5.41-12.1-12.05 0-6.64 5.43-12.05 12.1-12.05 6.67 0 12.1 5.41 12.1 12.05 0 6.64-5.43 12.05-12.1 12.05zm0-19.68c-4.24 0-7.68 3.43-7.68 7.65 0 4.23 3.44 7.66 7.68 7.66 4.24 0 7.69-3.43 7.69-7.66 0-4.22-3.45-7.65-7.69-7.65z"/>
		<path class="s0" d="m196.85 194.27l-7.25 16.11 4.03 1.8 7.25-16.11z"/>
		<path class="s0" d="m164.31 205.04l-3.27-2.93 7.27-8.01-3.5-20.57 4.36-0.74 3.85 22.67z"/>
		<path class="s0" d="m169.47 174.59l-39.8-0.12v-4.4h39.01z"/>
		<path class="s0" d="m127.12 178.89c3.67 0 6.65-2.96 6.65-6.62 0-3.65-2.98-6.62-6.65-6.62-3.67 0-6.64 2.97-6.64 6.62 0 3.66 2.97 6.62 6.64 6.62z"/>
		<path class="s0" d="m148.22 163.16l-26.23-5.24 0.52-2.22c3.87-16.08 13.17-30.65 26.21-41.05 13.44-10.69 29.65-16.35 46.88-16.35 5.36 0 10.69 0.57 15.92 1.68l2.16 0.47-5.7 26.05-2.16-0.46q-5.07-1.09-10.22-1.09c-22.09 0-41.35 14.87-46.86 36.16l-0.52 2.02zm-20.85-8.64l17.65 3.53c6.65-22.16 27.15-37.44 50.56-37.44 3 0 6.02 0.24 8.98 0.76l3.81-17.48c-4.21-0.77-8.53-1.16-12.81-1.16-16.22 0-31.49 5.33-44.14 15.38-11.68 9.29-20.18 22.16-24.1 36.43z"/>
		<path class="s0" d="m217.1 128.9c-10.14-3.36-19.56-3.88-19.63-3.9l0.22-4.4c0.4 0 10.09 0.54 20.83 4.13l-1.39 4.17z"/>
		<path class="s0" d="m143.43 122.33l-3.02 3.2 16.96 15.83 3.01-3.21z"/>
		<path class="s0" d="m177.91 103.34l-4.26 1.12 5.63 21.35 4.27-1.12z"/>
	</g>
</svg>