<svg width="80" height="80" viewBox="0 0 80 80" fill="none" xmlns="http://www.w3.org/2000/svg">
<path d="M67.2733 19.5903C66.9627 19.5903 66.6522 19.4701 66.4149 19.2281C66.3353 19.146 66.1856 18.955 66.1315 18.8538C65.813 18.259 66.0359 17.5177 66.6315 17.1985C67.1777 16.9046 67.8481 17.0703 68.2001 17.5592C68.6173 18.048 68.595 18.7925 68.1284 19.2432C67.888 19.4741 67.5806 19.5903 67.2733 19.5903Z" fill="url(#paint0_linear_4785_30286)"/>
<path d="M22.0078 11.7374C21.6128 11.7374 21.2243 11.5463 20.9886 11.1928C20.6143 10.6306 20.7656 9.87182 21.3278 9.4968C26.9858 5.72424 33.6041 3.73047 40.4661 3.73047C44.7912 3.73047 49.0065 4.52113 52.9956 6.08175C53.6246 6.32778 53.9351 7.03643 53.6883 7.66546C53.4431 8.29528 52.736 8.6074 52.1038 8.35898C48.4013 6.91063 44.4854 6.1765 40.4661 6.1765C34.0882 6.1765 27.9397 8.02854 22.6846 11.532C22.4759 11.6713 22.2403 11.7374 22.0078 11.7374Z" fill="url(#paint1_linear_4785_30286)"/>
<path d="M40.4659 73.2139C37.6266 73.2139 34.8445 72.8778 32.1947 72.2154C31.5386 72.0514 31.1405 71.3873 31.3045 70.732C31.4669 70.0767 32.1421 69.681 32.7871 69.8426C35.2442 70.4565 37.8272 70.7678 40.4659 70.7678C58.2697 70.7678 72.7532 56.2764 72.7532 38.4646C72.7532 34.3632 72.0016 30.3956 70.5206 26.6684C70.4314 26.4996 70.3805 26.3077 70.3805 26.1039C70.3805 25.4287 70.9203 24.8809 71.5955 24.8809C72.0955 24.8809 72.5605 25.1842 72.7469 25.6476C74.3744 29.6973 75.1993 34.0097 75.1993 38.4646C75.1993 57.6252 59.6186 73.2139 40.4659 73.2139Z" fill="url(#paint2_linear_4785_30286)"/>
<path d="M11.2612 56.0918C10.8344 56.0918 10.4203 55.8688 10.1958 55.4707C7.28637 50.327 5.74805 44.4469 5.74805 38.4648C5.74805 32.0782 7.49498 25.8413 10.8025 20.4269C11.1513 19.8512 11.9045 19.6673 12.4826 20.0208C13.0591 20.3727 13.2422 21.126 12.8887 21.7024C9.8184 26.7322 8.19408 32.5288 8.19408 38.4648C8.19408 44.0257 9.62252 49.4894 12.3233 54.2668C12.6562 54.8544 12.4492 55.6005 11.8615 55.9333C11.672 56.0408 11.465 56.0918 11.2612 56.0918Z" fill="url(#paint3_linear_4785_30286)"/>
<path d="M40.4664 61.7176C37.4789 61.7176 34.5822 61.161 31.8559 60.0638C31.2301 59.8114 30.9259 59.0988 31.1791 58.4722C31.4307 57.8439 32.1457 57.5422 32.77 57.7946C35.2033 58.7747 37.7926 59.2716 40.4664 59.2716C51.9305 59.2716 61.2576 49.9373 61.2576 38.4644C61.2576 35.2572 60.506 32.0515 59.0855 29.1923C58.7845 28.5871 59.0314 27.853 59.6365 27.552C60.2464 27.2502 60.9774 27.5003 61.2767 28.103C62.8644 31.2991 63.7037 34.8821 63.7037 38.4644C63.7037 51.2862 53.2794 61.7176 40.4664 61.7176Z" fill="url(#paint4_linear_4785_30286)"/>
<path d="M22.9675 53.0341C22.5168 53.0341 22.1219 52.7929 21.9101 52.4322C18.8573 48.3754 17.2441 43.5494 17.2441 38.4639C17.2441 32.5192 19.4768 26.8755 23.5296 22.5742C27.8962 17.9059 34.0702 15.2266 40.4655 15.2266C43.9371 15.2266 47.2733 15.9742 50.3818 17.4481C50.9917 17.7379 51.2529 18.4672 50.9631 19.0772C50.6748 19.6879 49.9455 19.9514 49.334 19.6584C46.5567 18.3406 43.5724 17.6726 40.4655 17.6726C34.7438 17.6726 29.2211 20.0693 25.3132 24.2479C21.6855 28.0977 19.6902 33.145 19.6902 38.4639C19.6902 43.0557 21.16 47.4119 23.9405 51.0611C24.1029 51.2745 24.1905 51.5348 24.1905 51.8024C24.1905 52.4776 23.6427 53.0341 22.9675 53.0341Z" fill="url(#paint5_linear_4785_30286)"/>
<path d="M40.4706 49.7214C34.2695 49.7214 29.2246 44.6733 29.2246 38.469C29.2246 32.2639 34.2695 27.2158 40.4706 27.2158C46.6749 27.2158 51.723 32.2639 51.723 38.469C51.723 44.6733 46.6749 49.7214 40.4706 49.7214ZM40.4706 29.6619C35.6184 29.6619 31.6706 33.6128 31.6706 38.469C31.6706 43.3252 35.6184 47.2753 40.4706 47.2753C45.3261 47.2753 49.277 43.3252 49.277 38.469C49.277 33.6128 45.3261 29.6619 40.4706 29.6619Z" fill="url(#paint6_linear_4785_30286)"/>
<path d="M40.475 40.6976C40.1613 40.6976 39.8491 40.5782 39.6103 40.3393L21.4052 22.1326C20.9274 21.6549 20.9274 20.881 21.4052 20.4032C21.8829 19.9255 22.6569 19.9255 23.1346 20.4032L41.3397 38.6099C41.8174 39.0877 41.8174 39.8616 41.3397 40.3393C41.1008 40.5782 40.7887 40.6976 40.475 40.6976Z" fill="url(#paint7_linear_4785_30286)"/>
<path d="M21.7294 23.2436C21.6482 23.2436 21.5654 23.2397 21.4842 23.2317L11.6857 22.281C11.106 22.2253 10.5614 21.9673 10.149 21.5556L1.74233 13.1482C0.981132 12.3878 0.786851 11.2675 1.24548 10.2945C1.7057 9.3207 2.70418 8.76175 3.76477 8.86367L10.434 9.511L9.86551 2.76451C9.76041 1.69437 10.321 0.705452 11.294 0.246025C12.2685 -0.214198 13.3896 -0.0175284 14.1493 0.742079L22.5559 9.14872C22.9683 9.56037 23.2263 10.1066 23.2805 10.6862L24.2312 20.4839C24.306 21.234 24.0417 21.9713 23.5082 22.5055C23.032 22.9817 22.3951 23.2436 21.7294 23.2436ZM3.52908 11.2985L11.8784 19.8262L21.7198 20.7968L20.8265 10.8781L12.4198 2.4715L12.9453 9.19808C13.0202 9.94814 12.7558 10.6854 12.2224 11.2197C11.6873 11.7532 10.942 12.0199 10.1983 11.9459L3.52908 11.2985Z" fill="url(#paint8_linear_4785_30286)"/>
<path d="M63.1743 30.199C54.9778 30.199 48.3086 23.6579 48.3086 15.6175C48.3086 7.57239 54.9778 1.02734 63.1743 1.02734C71.3659 1.02734 78.0304 7.57239 78.0304 15.6175C78.0304 23.6579 71.3659 30.199 63.1743 30.199ZM63.1743 3.47338C56.3267 3.47338 50.7546 8.92121 50.7546 15.6175C50.7546 22.3091 56.3267 27.7529 63.1743 27.7529C70.0171 27.7529 75.5844 22.3091 75.5844 15.6175C75.5844 8.92121 70.0171 3.47338 63.1743 3.47338Z" fill="url(#paint9_linear_4785_30286)"/>
<path d="M63.1652 30.1967C62.7655 30.1967 62.369 30.1792 61.9884 30.1425C62.0186 30.1505 61.9295 30.1433 61.8435 30.1362C61.7989 30.1362 61.6715 30.129 61.6269 30.1242C61.302 30.0876 60.9851 30.0518 60.6857 29.9992L59.8911 29.836C59.2844 29.7014 58.6601 29.5231 58.0614 29.3113C57.8336 29.2356 57.5661 29.1321 57.3193 29.0079C57.1903 28.9649 56.9705 28.8726 56.7332 28.7627C56.3988 28.6058 56.0915 28.4362 55.7841 28.265C55.2459 27.9585 54.7506 27.6392 54.2904 27.3032C54.0197 27.1065 53.7697 26.9082 53.5165 26.6933C53.2346 26.4528 53.0753 26.0961 53.0865 25.7242C53.1964 22.1245 55.3128 18.8695 58.6092 17.2308C59.2175 16.9251 59.9484 17.1775 60.2494 17.781C60.5504 18.3862 60.3036 19.1203 59.6984 19.4205C57.3925 20.567 55.8526 22.7495 55.5739 25.2099C55.6265 25.2497 55.679 25.2887 55.7332 25.3285C56.1201 25.612 56.539 25.8803 56.9546 26.1184C57.2317 26.2713 57.4913 26.4162 57.7683 26.5468C57.9451 26.6288 58.1171 26.7004 58.3034 26.7721C58.5566 26.8915 58.7127 26.9504 58.856 26.9982C59.3847 27.1845 59.907 27.3342 60.4469 27.4545L61.138 27.5954C61.3594 27.6336 61.6253 27.6623 61.8896 27.6917C61.8498 27.6862 61.9342 27.6894 62.0234 27.6973C62.0616 27.6973 62.1827 27.7037 62.2209 27.7077C62.8276 27.7658 63.498 27.7658 64.108 27.7077C64.1175 27.7069 64.2991 27.6973 64.307 27.6973C64.3946 27.6909 64.4806 27.6854 64.5666 27.6854C64.6844 27.6631 64.9376 27.6336 65.1877 27.5898L65.3756 27.5588C65.4472 27.5476 65.5189 27.5389 65.5937 27.5182C66.3008 27.3764 66.8916 27.2124 67.4378 27.011C67.6496 26.9441 67.7977 26.8883 67.9347 26.8199C68.4649 26.612 68.8519 26.4082 69.2421 26.1924C69.4284 26.1033 69.5096 26.0491 69.5924 25.9974C69.973 25.78 70.2947 25.5602 70.6148 25.3277C70.6434 25.2983 70.704 25.2473 70.7661 25.1987C70.4762 22.7774 68.9793 20.6212 66.7515 19.473C66.2865 19.3002 65.9536 18.8519 65.9536 18.3256C65.9536 17.6504 66.5014 17.1026 67.1766 17.1026C67.3837 17.1026 67.6751 17.1902 67.8566 17.2905C71.0591 18.93 73.1325 22.1611 73.2583 25.7187C73.271 26.1112 73.0958 26.4862 72.7853 26.7275C72.5894 26.886 72.4684 26.9831 72.3649 27.0579C72.2948 27.12 72.2216 27.1774 72.1499 27.2315C71.6578 27.593 71.2597 27.8629 70.8441 28.0978C70.7135 28.1814 70.5336 28.2897 70.3329 28.3789C69.9746 28.5827 69.4778 28.8439 68.914 29.0573C68.7723 29.1353 68.4968 29.242 68.2213 29.3272C67.6146 29.5525 66.898 29.7516 66.1543 29.8973C66.0778 29.922 65.9186 29.9491 65.7562 29.9753C65.3135 30.051 65.0157 30.0868 64.7195 30.1218L64.4854 30.1362C64.3994 30.1425 64.3118 30.1481 64.2242 30.1481C63.9599 30.1792 63.5633 30.1967 63.1652 30.1967Z" fill="url(#paint10_linear_4785_30286)"/>
<path d="M63.1692 21.9433C59.3601 21.9433 56.293 17.4167 56.293 13.6688C56.293 9.94008 59.3776 6.90723 63.1692 6.90723C66.9593 6.90723 70.0439 9.94008 70.0439 13.6688C70.0439 17.4167 66.9768 21.9433 63.1692 21.9433ZM63.1692 9.35326C60.7264 9.35326 58.739 11.2889 58.739 13.6688C58.739 16.2136 60.8872 19.4973 63.1692 19.4973C65.4497 19.4973 67.5979 16.2136 67.5979 13.6688C67.5979 11.2889 65.6105 9.35326 63.1692 9.35326Z" fill="url(#paint11_linear_4785_30286)"/>
<path d="M20.1908 80.0005C12.0008 80.0005 5.33789 73.3408 5.33789 65.1555C5.33789 56.9654 12.0008 50.3018 20.1908 50.3018C28.3761 50.3018 35.0358 56.9654 35.0358 65.1555C35.0358 73.3408 28.3761 80.0005 20.1908 80.0005ZM20.1908 52.7478C13.3496 52.7478 7.78392 58.3143 7.78392 65.1555C7.78392 71.992 13.3496 77.5545 20.1908 77.5545C27.0273 77.5545 32.5898 71.992 32.5898 65.1555C32.5898 58.3143 27.0273 52.7478 20.1908 52.7478Z" fill="url(#paint12_linear_4785_30286)"/>
<path d="M20.1971 79.9987C19.799 79.9987 19.4025 79.9812 19.0219 79.9446C18.4996 79.9111 17.9486 79.8379 17.4215 79.7288C17.1619 79.6866 16.853 79.6189 16.5424 79.5504L15.278 79.1698C15.0933 79.1085 14.9324 79.0472 14.7461 78.9652C14.469 78.8712 14.1203 78.7088 13.7715 78.5448C13.0613 78.1976 12.4482 77.8409 11.8829 77.4476C11.7507 77.3831 11.5469 77.2318 11.3271 77.0542C11.0755 76.8679 10.7904 76.6529 10.5245 76.4212C10.2458 76.1792 10.0929 75.8248 10.1041 75.457C10.2299 71.7935 12.3479 68.486 15.6331 66.8234C16.2383 66.5193 16.9724 66.7613 17.2766 67.3633C17.5823 67.9652 17.3403 68.7017 16.7383 69.0067C14.4276 70.1756 12.8798 72.4154 12.5931 74.9474C12.6696 75.0055 12.7476 75.0636 12.8256 75.121C12.9642 75.2316 13.0565 75.3097 13.1712 75.3726C13.7413 75.7619 14.2477 76.0558 14.8305 76.34C15.0885 76.4618 15.3608 76.5924 15.6475 76.6935C15.8433 76.7763 15.9405 76.8122 16.052 76.8496L17.0855 77.1657C17.3387 77.2214 17.6046 77.2804 17.8706 77.3249C18.3356 77.4205 18.7687 77.4778 19.2162 77.5065C19.9232 77.5726 20.5555 77.5527 21.1829 77.5216C21.8533 77.4683 22.6018 77.3425 23.3725 77.149L23.7786 77.0359C24.0079 76.9627 24.2038 76.9037 24.3885 76.8233C24.4506 76.7962 24.5143 76.7748 24.5812 76.758C24.5844 76.7564 24.8233 76.6689 24.8265 76.6673C25.0446 76.5765 25.3201 76.4547 25.5797 76.3328C26.1402 76.0518 26.6451 75.7556 27.0973 75.4411C27.29 75.3216 27.411 75.2364 27.5193 75.152C27.54 75.1353 27.5591 75.121 27.5798 75.1066C27.591 75.0979 27.6021 75.0891 27.6133 75.0812C27.6674 75.0413 27.7216 74.9999 27.7741 74.9585C27.505 72.4194 25.9603 70.174 23.6432 69.0075C23.0397 68.7041 22.7961 67.9684 23.1002 67.3657C23.4044 66.7613 24.1353 66.5161 24.7421 66.8226C28.0369 68.4804 30.1501 71.7911 30.2584 75.4626C30.2679 75.832 30.1119 76.1863 29.8316 76.4276C29.5688 76.6513 29.3236 76.8607 29.0592 77.0534C29.0481 77.0622 29.0369 77.0709 29.0242 77.0797C29.0226 77.0813 29.021 77.0821 29.0194 77.0837C28.8347 77.227 28.6309 77.3711 28.4238 77.4945C27.9461 77.8314 27.341 78.1857 26.6466 78.5328C26.3266 78.6841 26.016 78.8219 25.7214 78.9437C25.5224 79.0201 25.3966 79.0671 25.2819 79.1013C25.0398 79.2009 24.7898 79.2813 24.5462 79.3569C24.5255 79.3633 24.3997 79.4015 24.3774 79.4071L23.9665 79.5218C23.0652 79.7479 22.1798 79.896 21.3374 79.9621C20.9392 79.982 20.5777 79.9987 20.1971 79.9987Z" fill="url(#paint13_linear_4785_30286)"/>
<path d="M20.1883 71.5816C16.3823 71.5816 13.3184 66.9793 13.3184 63.1686C13.3184 59.3801 16.3998 56.2979 20.1883 56.2979C23.9767 56.2979 27.0582 59.3801 27.0582 63.1686C27.0582 66.9793 23.9943 71.5816 20.1883 71.5816ZM20.1883 58.7439C17.7486 58.7439 15.7644 60.7289 15.7644 63.1686C15.7644 65.7738 17.9094 69.1355 20.1883 69.1355C22.4671 69.1355 24.6121 65.7738 24.6121 63.1686C24.6121 60.7289 22.6279 58.7439 20.1883 58.7439Z" fill="url(#paint14_linear_4785_30286)"/>
<defs>
<linearGradient id="paint0_linear_4785_30286" x1="65.9863" y1="17.2245" x2="68.9602" y2="18.2936" gradientUnits="userSpaceOnUse">
<stop stop-color="#2F7DE1"/>
<stop offset="1" stop-color="#22D3C5"/>
</linearGradient>
<linearGradient id="paint1_linear_4785_30286" x1="20.7832" y1="4.27245" x2="34.3968" y2="24.6559" gradientUnits="userSpaceOnUse">
<stop stop-color="#2F7DE1"/>
<stop offset="1" stop-color="#22D3C5"/>
</linearGradient>
<linearGradient id="paint2_linear_4785_30286" x1="31.2676" y1="28.1525" x2="84.2573" y2="45.6556" gradientUnits="userSpaceOnUse">
<stop stop-color="#2F7DE1"/>
<stop offset="1" stop-color="#22D3C5"/>
</linearGradient>
<linearGradient id="paint3_linear_4785_30286" x1="5.74805" y1="22.2946" x2="15.4892" y2="23.0095" gradientUnits="userSpaceOnUse">
<stop stop-color="#2F7DE1"/>
<stop offset="1" stop-color="#22D3C5"/>
</linearGradient>
<linearGradient id="paint4_linear_4785_30286" x1="31.0898" y1="29.7452" x2="70.065" y2="43.215" gradientUnits="userSpaceOnUse">
<stop stop-color="#2F7DE1"/>
<stop offset="1" stop-color="#22D3C5"/>
</linearGradient>
<linearGradient id="paint5_linear_4785_30286" x1="17.2441" y1="17.7857" x2="58.1808" y2="31.1" gradientUnits="userSpaceOnUse">
<stop stop-color="#2F7DE1"/>
<stop offset="1" stop-color="#22D3C5"/>
</linearGradient>
<linearGradient id="paint6_linear_4785_30286" x1="29.2246" y1="28.7392" x2="55.8135" y2="38.3986" gradientUnits="userSpaceOnUse">
<stop stop-color="#2F7DE1"/>
<stop offset="1" stop-color="#22D3C5"/>
</linearGradient>
<linearGradient id="paint7_linear_4785_30286" x1="21.0469" y1="21.4429" x2="45.4513" y2="30.3109" gradientUnits="userSpaceOnUse">
<stop stop-color="#2F7DE1"/>
<stop offset="1" stop-color="#22D3C5"/>
</linearGradient>
<linearGradient id="paint8_linear_4785_30286" x1="1" y1="1.57335" x2="28.4676" y2="11.5552" gradientUnits="userSpaceOnUse">
<stop stop-color="#2F7DE1"/>
<stop offset="1" stop-color="#22D3C5"/>
</linearGradient>
<linearGradient id="paint9_linear_4785_30286" x1="48.3086" y1="3.00196" x2="83.2763" y2="15.949" gradientUnits="userSpaceOnUse">
<stop stop-color="#2F7DE1"/>
<stop offset="1" stop-color="#22D3C5"/>
</linearGradient>
<linearGradient id="paint10_linear_4785_30286" x1="53.0859" y1="17.9871" x2="73.6342" y2="29.4896" gradientUnits="userSpaceOnUse">
<stop stop-color="#2F7DE1"/>
<stop offset="1" stop-color="#22D3C5"/>
</linearGradient>
<linearGradient id="paint11_linear_4785_30286" x1="56.293" y1="7.92501" x2="72.8591" y2="13.4307" gradientUnits="userSpaceOnUse">
<stop stop-color="#2F7DE1"/>
<stop offset="1" stop-color="#22D3C5"/>
</linearGradient>
<linearGradient id="paint12_linear_4785_30286" x1="5.33789" y1="52.3121" x2="40.4329" y2="65.0654" gradientUnits="userSpaceOnUse">
<stop stop-color="#2F7DE1"/>
<stop offset="1" stop-color="#22D3C5"/>
</linearGradient>
<linearGradient id="paint13_linear_4785_30286" x1="10.1035" y1="67.5913" x2="30.7983" y2="78.9811" gradientUnits="userSpaceOnUse">
<stop stop-color="#2F7DE1"/>
<stop offset="1" stop-color="#22D3C5"/>
</linearGradient>
<linearGradient id="paint14_linear_4785_30286" x1="13.3184" y1="57.3324" x2="29.9267" y2="62.7583" gradientUnits="userSpaceOnUse">
<stop stop-color="#2F7DE1"/>
<stop offset="1" stop-color="#22D3C5"/>
</linearGradient>
</defs>
</svg>
