<svg width="80" height="80" viewBox="0 0 80 80" fill="none" xmlns="http://www.w3.org/2000/svg">
<path d="M40.4375 36.7373C40.85 36.7373 41.2625 36.5248 41.4875 36.1373C43.2 33.2123 44.1 29.8623 44.1 26.4373C44.1 15.7498 35.4 7.0498 24.7125 7.0498C24.0375 7.0498 23.5 7.58731 23.5 8.26231V26.4373C23.5 26.8748 23.725 27.2748 24.1 27.4873L39.8375 36.5748C40.025 36.6873 40.225 36.7373 40.4375 36.7373ZM25.9125 9.51231C34.7 10.1373 41.6625 17.4873 41.6625 26.4373C41.6625 29.0248 41.075 31.5623 39.95 33.8498L25.9 25.7373V9.51231H25.9125Z" fill="url(#paint0_linear_4785_30340)"/>
<path d="M78.3508 15.575C78.2883 15.425 78.2008 15.2875 78.0883 15.1875L63.2758 0.3625C63.1633 0.25 63.0258 0.1625 62.8883 0.1C62.7383 0.0375 62.5758 0 62.4258 0H19.1883C17.1883 0 15.5508 1.625 15.5508 3.6375V9.625C7.47578 11.9625 1.55078 19.4125 1.55078 28.2375C1.55078 33.5625 3.71328 38.4 7.21328 41.9125C7.22578 41.925 7.22578 41.9375 7.23828 41.95C7.25078 41.9625 7.26328 41.9625 7.27578 41.975C9.55078 44.2375 12.3883 45.9375 15.5508 46.85V76.3625C15.5508 78.3625 17.1758 80 19.1883 80H74.8008C76.8008 80 78.4383 78.375 78.4383 76.3625V16.0375C78.4383 15.875 78.4133 15.7125 78.3508 15.575ZM63.6258 4.1375L74.3008 14.825H63.6258V4.1375ZM19.7383 11.3125V27.7375L8.15078 39.325C5.56328 36.35 3.98828 32.475 3.98828 28.2375C3.98828 19.2875 10.9508 11.9375 19.7383 11.3125ZM9.85078 41.05L21.1383 29.7625L34.9758 37.7625C31.8508 42.3875 26.5758 45.2125 20.9383 45.2125C16.7008 45.2 12.8383 43.625 9.85078 41.05ZM74.8008 77.575H19.1883C18.5133 77.575 17.9758 77.0375 17.9758 76.3625V47.375C18.9508 47.525 19.9258 47.625 20.9383 47.625C27.8383 47.625 34.2758 43.9125 37.7258 37.9375C37.7383 37.925 37.7383 37.9 37.7383 37.8875C37.7883 37.8 37.8133 37.7 37.8383 37.6C37.8508 37.5375 37.8758 37.4875 37.8758 37.425C37.8758 37.3875 37.8883 37.3625 37.8883 37.3375C37.8883 37.275 37.8633 37.2125 37.8508 37.15C37.8383 37.0875 37.8383 37.025 37.8133 36.9625C37.7883 36.875 37.7383 36.8 37.7008 36.725C37.6633 36.6625 37.6383 36.6125 37.5883 36.5625C37.5258 36.5 37.4633 36.4375 37.3883 36.3875C37.3508 36.3625 37.3258 36.3125 37.2883 36.3L22.1633 27.5625V10.0625C22.1633 9.3875 21.6258 8.85 20.9508 8.85C19.9383 8.85 18.9508 8.95 17.9883 9.1V3.6375C17.9883 2.9625 18.5258 2.425 19.2008 2.425H61.2133V16.0375C61.2133 16.7125 61.7508 17.25 62.4258 17.25H76.0258V76.3625C76.0133 77.0375 75.4758 77.575 74.8008 77.575Z" fill="url(#paint1_linear_4785_30340)"/>
<path d="M68.0379 44.5371C65.7504 44.5371 63.9004 46.3996 63.9004 48.6746C63.9004 49.3871 64.1004 50.0496 64.4129 50.6371L58.4629 56.7121C57.8879 56.4121 57.2629 56.2371 56.5754 56.2371C55.0504 56.2371 53.7379 57.0746 53.0129 58.2996L44.4629 56.3121C44.3129 54.1621 42.5379 52.4621 40.3504 52.4621C38.0629 52.4621 36.2129 54.3246 36.2129 56.5996C36.2129 57.2621 36.3879 57.8871 36.6754 58.4496L27.9754 66.7621C27.3754 66.4246 26.7004 66.2246 25.9754 66.2246C23.6879 66.2246 21.8379 68.0871 21.8379 70.3621C21.8379 72.6496 23.7004 74.4996 25.9754 74.4996C28.2629 74.4996 30.1129 72.6371 30.1129 70.3621C30.1129 69.6996 29.9379 69.0746 29.6504 68.5121L38.3504 60.1996C38.9504 60.5371 39.6254 60.7371 40.3504 60.7371C41.8754 60.7371 43.2004 59.8996 43.9129 58.6746L52.4629 60.6621C52.6129 62.8121 54.3879 64.5121 56.5754 64.5121C58.8629 64.5121 60.7129 62.6496 60.7129 60.3746C60.7129 59.6621 60.5129 58.9996 60.2004 58.4121L66.1504 52.3371C66.7254 52.6371 67.3504 52.8121 68.0379 52.8121C70.3254 52.8121 72.1754 50.9496 72.1754 48.6746C72.1754 46.3871 70.3129 44.5371 68.0379 44.5371ZM25.9629 72.0746C25.0129 72.0746 24.2504 71.2996 24.2504 70.3621C24.2504 69.4121 25.0254 68.6496 25.9629 68.6496C26.4379 68.6496 26.8629 68.8371 27.1754 69.1496C27.1879 69.1621 27.1879 69.1746 27.1879 69.1746C27.1879 69.1746 27.2004 69.1746 27.2004 69.1871C27.4879 69.4996 27.6754 69.9121 27.6754 70.3621C27.6754 71.3121 26.9129 72.0746 25.9629 72.0746ZM40.3504 58.3121C39.4004 58.3121 38.6379 57.5371 38.6379 56.5996C38.6379 55.6496 39.4129 54.8871 40.3504 54.8871C41.3004 54.8871 42.0629 55.6621 42.0629 56.5996C42.0629 57.5371 41.2879 58.3121 40.3504 58.3121ZM56.5754 62.0871C55.6254 62.0871 54.8629 61.3121 54.8629 60.3746C54.8629 59.4246 55.6379 58.6621 56.5754 58.6621C57.0379 58.6621 57.4504 58.8496 57.7504 59.1371C57.7504 59.1371 57.7629 59.1496 57.7629 59.1621C57.7754 59.1746 57.7879 59.1746 57.7879 59.1871C58.0879 59.4996 58.2754 59.9246 58.2754 60.3871C58.2879 61.3246 57.5129 62.0871 56.5754 62.0871ZM68.0379 50.3871C67.0879 50.3871 66.3254 49.6121 66.3254 48.6746C66.3254 47.7246 67.1004 46.9621 68.0379 46.9621C68.9879 46.9621 69.7504 47.7371 69.7504 48.6746C69.7504 49.6246 68.9879 50.3871 68.0379 50.3871Z" fill="url(#paint2_linear_4785_30340)"/>
<path d="M47.7516 23.0998H62.4266C63.1016 23.0998 63.6391 22.5623 63.6391 21.8873C63.6391 21.2123 63.1016 20.6748 62.4266 20.6748H47.7516C47.0766 20.6748 46.5391 21.2123 46.5391 21.8873C46.5391 22.5623 47.0766 23.0998 47.7516 23.0998Z" fill="url(#paint3_linear_4785_30340)"/>
<path d="M47.7516 29.4504H69.0891C69.7641 29.4504 70.3016 28.9129 70.3016 28.2379C70.3016 27.5629 69.7641 27.0254 69.0891 27.0254H47.7516C47.0766 27.0254 46.5391 27.5629 46.5391 28.2379C46.5391 28.9129 47.0766 29.4504 47.7516 29.4504Z" fill="url(#paint4_linear_4785_30340)"/>
<path d="M47.7516 35.8H69.0891C69.7641 35.8 70.3016 35.2625 70.3016 34.5875C70.3016 33.9125 69.7641 33.375 69.0891 33.375H47.7516C47.0766 33.375 46.5391 33.9125 46.5391 34.5875C46.5391 35.2625 47.0766 35.8 47.7516 35.8Z" fill="url(#paint5_linear_4785_30340)"/>
<defs>
<linearGradient id="paint0_linear_4785_30340" x1="23.5" y1="9.05934" x2="49.4108" y2="15.5931" gradientUnits="userSpaceOnUse">
<stop stop-color="#2F7DE1"/>
<stop offset="1" stop-color="#22D3C5"/>
</linearGradient>
<linearGradient id="paint1_linear_4785_30340" x1="1.55078" y1="5.41516" x2="93.2267" y2="37.4344" gradientUnits="userSpaceOnUse">
<stop stop-color="#2F7DE1"/>
<stop offset="1" stop-color="#22D3C5"/>
</linearGradient>
<linearGradient id="paint2_linear_4785_30340" x1="21.8379" y1="46.5653" x2="70.8937" y2="76.515" gradientUnits="userSpaceOnUse">
<stop stop-color="#2F7DE1"/>
<stop offset="1" stop-color="#22D3C5"/>
</linearGradient>
<linearGradient id="paint3_linear_4785_30340" x1="46.5391" y1="20.839" x2="49.5623" y2="28.5862" gradientUnits="userSpaceOnUse">
<stop stop-color="#2F7DE1"/>
<stop offset="1" stop-color="#22D3C5"/>
</linearGradient>
<linearGradient id="paint4_linear_4785_30340" x1="46.5391" y1="27.1895" x2="48.8627" y2="35.4641" gradientUnits="userSpaceOnUse">
<stop stop-color="#2F7DE1"/>
<stop offset="1" stop-color="#22D3C5"/>
</linearGradient>
<linearGradient id="paint5_linear_4785_30340" x1="46.5391" y1="33.5391" x2="48.8627" y2="41.8137" gradientUnits="userSpaceOnUse">
<stop stop-color="#2F7DE1"/>
<stop offset="1" stop-color="#22D3C5"/>
</linearGradient>
</defs>
</svg>
