<svg width="80" height="80" viewBox="0 0 80 80" fill="none" xmlns="http://www.w3.org/2000/svg">
<path d="M79.6875 39.8438C79.6875 50.4863 75.5431 60.4919 68.0175 68.0175C60.4919 75.5431 50.4863 79.6875 39.8438 79.6875C34.1963 79.6875 28.7384 78.5292 23.6219 76.245C19.6295 74.4627 16.0053 72.0698 12.8127 69.1141L13.1772 73.6548C13.2325 74.3428 12.7192 74.9456 12.0311 75.0008C11.9972 75.0036 11.9633 75.0047 11.9298 75.0047C11.2848 75.0047 10.7377 74.5088 10.6852 73.8547L10.053 65.9784C10.0236 65.6133 10.1561 65.2536 10.415 64.9947C10.6741 64.7356 11.0338 64.6042 11.3989 64.6325L19.2752 65.2644C19.9633 65.3197 20.4764 65.9222 20.4212 66.6103C20.3659 67.2984 19.7616 67.813 19.0753 67.7564L14.6512 67.4014C21.5002 73.6527 30.5184 77.1875 39.8438 77.1875C60.4352 77.1875 77.1875 60.4352 77.1875 39.8438C77.1875 32.6047 75.1137 25.5836 71.1905 19.5395C70.8145 18.9605 70.9792 18.1864 71.5583 17.8106C72.1373 17.4344 72.9116 17.5995 73.2872 18.1784C77.4744 24.6287 79.6875 32.1205 79.6875 39.8438ZM2.5 39.8438C2.5 19.2523 19.2523 2.5 39.8438 2.5C49.1711 2.5 58.1906 6.03484 65.0397 12.2864L60.6122 11.9312C59.9231 11.8752 59.3214 12.3892 59.2662 13.0773C59.2111 13.7655 59.7242 14.3681 60.4123 14.4233L68.2886 15.0552C68.322 15.0578 68.3553 15.0591 68.3886 15.0591C68.7188 15.0591 69.037 14.9283 69.2725 14.693C69.5314 14.4339 69.6639 14.0742 69.6345 13.7091L69.0025 5.83281C68.9472 5.14469 68.3405 4.63016 67.6566 4.68672C66.9684 4.74203 66.4553 5.34453 66.5105 6.03266L66.8747 10.5705C63.6823 7.61563 60.0588 5.22375 56.0667 3.44187C50.9497 1.15812 45.4916 0 39.8438 0C29.2013 0 19.1956 4.14438 11.67 11.67C4.14438 19.1956 0 29.2013 0 39.8438C0 47.5655 2.21391 55.0572 6.4025 61.5092C6.64188 61.8781 7.04297 62.0789 7.45219 62.0789C7.68531 62.0789 7.92141 62.0136 8.13172 61.8772C8.71062 61.5014 8.87547 60.7272 8.49953 60.1483C4.57453 54.1022 2.5 47.0811 2.5 39.8438ZM53.978 58.9406V29.3H52.6987C51.9952 29.3 51.3594 28.8831 51.0789 28.2381C50.7986 27.593 50.9275 26.8438 51.4077 26.3292L57.6595 19.6308C58.0534 19.2089 58.6098 18.9672 59.1862 18.9672C59.7627 18.9672 60.3191 19.2089 60.7128 19.6305L66.9648 26.3291C67.4448 26.8433 67.5739 27.5927 67.2936 28.2378C67.0133 28.8831 66.3775 29.3 65.6738 29.3H64.3945V58.9406C64.3945 59.6309 63.8348 60.1906 63.1445 60.1906H55.228C54.5377 60.1906 53.978 59.6309 53.978 58.9406ZM54.388 26.8H55.228C55.9183 26.8 56.478 27.3597 56.478 28.05V57.6906H61.8945V28.05C61.8945 27.3597 62.4542 26.8 63.1445 26.8H63.9845L59.1862 21.6589L54.388 26.8ZM21.67 46.6923C22.3603 46.6923 22.92 47.252 22.92 47.9423V58.9406C22.92 59.6309 22.3603 60.1906 21.67 60.1906H13.7533C13.063 60.1906 12.5033 59.6309 12.5033 58.9406V47.9423C12.5033 47.252 13.063 46.6923 13.7533 46.6923H21.67ZM20.42 49.1923H15.0033V57.6906H20.42V49.1923ZM35.4948 39.4453C36.1852 39.4453 36.7448 40.005 36.7448 40.6953V58.9406C36.7448 59.6309 36.1852 60.1906 35.4948 60.1906H27.5783C26.888 60.1906 26.3283 59.6309 26.3283 58.9406V40.6953C26.3283 40.005 26.888 39.4453 27.5783 39.4453H35.4948ZM34.2448 41.9453H28.8283V57.6906H34.2448V41.9453ZM50.5697 33.448V58.9406C50.5697 59.6309 50.01 60.1906 49.3197 60.1906H41.403C40.7127 60.1906 40.153 59.6309 40.153 58.9406V33.448C40.153 32.7577 40.7127 32.198 41.403 32.198H49.3197C50.01 32.198 50.5697 32.7577 50.5697 33.448ZM48.0697 34.698H42.653V57.6906H48.0697V34.698ZM50.7786 23.7562C50.4925 24.4533 49.8503 24.9173 49.1022 24.9673C48.3514 25.0173 47.6475 24.6438 47.2711 23.9913L46.5941 22.8184L17.2503 39.7602C16.9084 39.9578 16.5344 40.0516 16.1653 40.0516C15.4122 40.0516 14.6788 39.6611 14.2758 38.9631L12.5381 35.9533C11.9377 34.9133 12.2953 33.5789 13.3352 32.9786L42.6789 16.037L42.0016 14.8636C41.6248 14.2116 41.652 13.417 42.0722 12.7902C42.4898 12.1675 43.2128 11.8428 43.9591 11.9442L52.5008 13.0984C53.1064 13.1802 53.6291 13.5306 53.9345 14.0594C54.2398 14.5884 54.282 15.2159 54.05 15.7814L50.7786 23.7562ZM51.4708 15.482L44.7184 14.5697L45.4689 15.8695C45.6348 16.1566 45.6797 16.4978 45.5939 16.818C45.5081 17.1383 45.2986 17.4112 45.0114 17.5769L14.8644 34.9827L16.2797 37.4339L46.4267 20.0284C47.0248 19.683 47.7892 19.8883 48.1342 20.4859L48.8848 21.7859L51.4708 15.482Z" fill="url(#paint0_linear_4785_30352)"/>
<defs>
<linearGradient id="paint0_linear_4785_30352" x1="4.51916e-07" y1="5.39401" x2="94.1688" y2="39.6153" gradientUnits="userSpaceOnUse">
<stop stop-color="#2F7DE1"/>
<stop offset="1" stop-color="#22D3C5"/>
</linearGradient>
</defs>
</svg>
